<svg width="272" height="46" viewBox="0 0 272 46" fill="none" xmlns="http://www.w3.org/2000/svg">
<g clip-path="url(#clip0)">
<path d="M78.6568 19.4598C78.6568 25.8999 73.8521 29.8045 67.9128 29.8045C61.9734 29.8045 57.137 25.8999 57.137 19.4598C57.137 13.0196 61.9797 9.11499 67.9128 9.11499C73.8458 9.11499 78.6568 13.0196 78.6568 19.4598ZM59.0386 19.4598C59.0386 24.7969 63.0446 28.1374 67.9128 28.1374C72.7809 28.1374 76.7869 24.7969 76.7869 19.4598C76.7869 14.1226 72.8189 10.7821 67.9128 10.7821C63.0066 10.7821 59.0386 14.0719 59.0386 19.4598Z" fill="white" stroke="white" stroke-width="0.45" stroke-miterlimit="10"/>
<path d="M83.1639 18.1604H83.2653C83.8785 17.2883 84.7004 16.5837 85.656 16.1109C86.6115 15.6381 87.6703 15.4122 88.7356 15.4538C92.7734 15.4538 95.3405 18.49 95.3405 22.6292C95.3405 27.4022 92.0064 29.8046 88.4377 29.8046C87.4656 29.8161 86.5011 29.633 85.6008 29.2661C84.7005 28.8993 83.8827 28.3561 83.1956 27.6685L82.9293 29.0693C82.9222 29.1735 82.8779 29.2716 82.8047 29.346C82.7315 29.4204 82.634 29.4662 82.53 29.475H81.6299C81.5475 29.4573 81.4719 29.4162 81.4123 29.3566C81.3527 29.297 81.3116 29.2215 81.2939 29.139V7.80931C81.3109 7.72382 81.3513 7.64475 81.4106 7.58093C81.4699 7.51711 81.5459 7.47107 81.6299 7.448H82.8343C82.9674 7.448 83.1639 7.6762 83.1639 7.80931V18.1604ZM88.5708 17.1209C87.3924 17.141 86.2472 17.5142 85.2833 18.1922C84.3194 18.8702 83.5811 19.8219 83.1639 20.9241V25.8619C83.8142 26.5874 84.6122 27.1652 85.5044 27.5566C86.3965 27.948 87.3621 28.1439 88.3363 28.1312C91.2077 28.1312 93.4769 26.0267 93.4769 22.6229C93.4769 19.3901 91.4422 17.1209 88.5708 17.1209Z" fill="white" stroke="white" stroke-width="0.45" stroke-miterlimit="10"/>
<path d="M100.018 34.0832C100.018 36.9547 98.3448 39.2239 95.2135 39.2239C94.542 39.2302 93.8762 39.1003 93.2563 38.8421C92.6364 38.5839 92.0753 38.2027 91.6068 37.7216C91.5663 37.6898 91.5334 37.6495 91.5104 37.6034C91.4874 37.5574 91.4748 37.5069 91.4736 37.4554C91.4804 37.3506 91.5283 37.2527 91.6068 37.1828L92.2089 36.549C92.2921 36.4434 92.4121 36.3732 92.5449 36.3525C92.6475 36.3609 92.7428 36.4086 92.8111 36.4856C93.4337 37.1119 94.2627 37.4904 95.1437 37.5505C96.982 37.5505 98.1483 36.4159 98.1483 34.0832V16.1574C98.1483 16.0243 98.3448 15.7897 98.4843 15.7897H99.6823C99.8154 15.7897 100.018 16.0243 100.018 16.1574V34.0832ZM99.0801 9.17847C99.2472 9.18657 99.4111 9.22768 99.5622 9.29941C99.7134 9.37114 99.8488 9.47207 99.9608 9.5964C100.073 9.72073 100.159 9.86599 100.215 10.0238C100.27 10.1816 100.294 10.3489 100.284 10.5159C100.306 10.6864 100.291 10.8594 100.24 11.0236C100.19 11.1877 100.105 11.3393 99.9913 11.4681C99.8777 11.597 99.738 11.7001 99.5814 11.7708C99.4248 11.8415 99.255 11.8781 99.0832 11.8781C98.9115 11.8781 98.7417 11.8415 98.5851 11.7708C98.4285 11.7001 98.2888 11.597 98.1752 11.4681C98.0616 11.3393 97.9767 11.1877 97.9262 11.0236C97.8756 10.8594 97.8606 10.6864 97.8821 10.5159C97.8727 10.3494 97.8962 10.1826 97.9514 10.0252C98.0065 9.8678 98.0922 9.72279 98.2035 9.59854C98.3148 9.4743 98.4495 9.37323 98.5999 9.30115C98.7503 9.22906 98.9135 9.18738 99.0801 9.17847Z" fill="white" stroke="white" stroke-width="0.45" stroke-miterlimit="10"/>
<path d="M104.576 23.1617C104.874 26.5339 107.409 28.1376 110.376 28.1376C112.32 28.0991 114.174 27.3084 115.548 25.9317C115.713 25.7669 115.783 25.7352 115.916 25.7352C115.972 25.7344 116.028 25.7458 116.08 25.7688C116.131 25.7918 116.177 25.8258 116.214 25.8683L116.816 26.4325C116.858 26.4712 116.892 26.5182 116.915 26.5706C116.937 26.623 116.949 26.6796 116.949 26.7368C116.927 26.9314 116.832 27.1103 116.683 27.2375C115.863 28.0743 114.881 28.7339 113.796 29.1755C112.711 29.617 111.547 29.8312 110.376 29.8047C105.939 29.8047 102.674 27.003 102.674 22.6293C102.674 18.6929 105.539 15.4539 110.179 15.4539C114.819 15.4539 117.215 18.357 117.215 21.894C117.215 22.5278 117.152 23.1617 117.152 23.1617H104.576ZM104.576 21.5644H115.282C115.219 18.9275 113.418 17.0893 110.148 17.0893C107.688 17.0893 105.089 18.2936 104.576 21.5644Z" fill="white" stroke="white" stroke-width="0.45" stroke-miterlimit="10"/>
<path d="M134.247 20.8925C134.241 20.9754 134.204 21.0529 134.142 21.1093C134.081 21.1658 134.001 21.197 133.918 21.1967H132.713C132.632 21.1929 132.554 21.1603 132.493 21.1046C132.433 21.049 132.394 20.9739 132.384 20.8925C131.978 18.4901 129.88 17.1209 127.275 17.1209C126.539 17.0874 125.804 17.2063 125.117 17.4702C124.429 17.7341 123.803 18.1374 123.279 18.6546C122.754 19.1719 122.343 19.792 122.069 20.476C121.796 21.16 121.667 21.8931 121.69 22.6293C121.69 25.8684 124.163 28.1376 127.566 28.1376C129.798 28.1376 131.37 27.1995 132.967 25.6338C132.999 25.593 133.04 25.5599 133.087 25.5372C133.133 25.5145 133.185 25.5027 133.236 25.5027C133.288 25.5027 133.34 25.5145 133.386 25.5372C133.433 25.5599 133.474 25.593 133.506 25.6338L134.07 26.2043C134.116 26.2404 134.154 26.2854 134.183 26.3366C134.211 26.3877 134.229 26.4441 134.235 26.5022C134.226 26.6407 134.168 26.7714 134.07 26.8699C133.275 27.8151 132.278 28.5697 131.152 29.0777C130.027 29.5857 128.801 29.8341 127.566 29.8047C123.294 29.8047 119.827 27.1044 119.827 22.6293C119.827 18.3253 122.996 15.4539 127.262 15.4539C131.3 15.4539 133.734 17.7928 134.171 20.2269C134.216 20.4107 134.247 20.8291 134.247 20.8925Z" fill="white" stroke="white" stroke-width="0.45" stroke-miterlimit="10"/>
<path d="M136.453 17.4568C136.378 17.4464 136.308 17.4117 136.254 17.3579C136.2 17.3041 136.166 17.2342 136.155 17.1589V16.0876C136.166 16.0123 136.2 15.9424 136.254 15.8886C136.308 15.8348 136.378 15.8001 136.453 15.7897H138.621V12.4873C138.621 12.3542 138.824 12.1196 138.957 12.1196H140.155C140.288 12.1196 140.491 12.3542 140.491 12.4873V15.7897H145.562C145.638 15.7998 145.709 15.8343 145.764 15.888C145.819 15.9417 145.855 16.0118 145.866 16.0876V17.1589C145.855 17.2348 145.819 17.3048 145.764 17.3585C145.709 17.4123 145.638 17.4467 145.562 17.4568H140.491V24.8477C140.491 27.3135 141.594 28.1502 143.293 28.1502C144.163 28.1125 145.002 27.8095 145.695 27.2818C145.86 27.1487 145.93 27.1487 145.993 27.1487C146.043 27.1524 146.092 27.1696 146.133 27.1987C146.174 27.2277 146.207 27.2674 146.227 27.3135L146.697 28.0171C146.766 28.1031 146.812 28.2058 146.83 28.315C146.826 28.3696 146.81 28.4225 146.781 28.4689C146.752 28.5154 146.712 28.554 146.665 28.5812C145.672 29.3597 144.453 29.7936 143.191 29.8173C140.459 29.8173 138.621 28.315 138.621 24.8477V17.4568H136.453Z" fill="white" stroke="white" stroke-width="0.45" stroke-miterlimit="10"/>
<path d="M150.335 9.17847C150.502 9.18738 150.665 9.22906 150.815 9.30115C150.966 9.37323 151.1 9.4743 151.212 9.59855C151.323 9.72279 151.409 9.8678 151.464 10.0252C151.519 10.1826 151.542 10.3494 151.533 10.5159C151.554 10.6864 151.539 10.8594 151.489 11.0236C151.438 11.1877 151.353 11.3393 151.24 11.4681C151.126 11.597 150.986 11.7001 150.83 11.7708C150.673 11.8415 150.504 11.8781 150.332 11.8781C150.16 11.8781 149.99 11.8415 149.834 11.7708C149.677 11.7001 149.537 11.597 149.424 11.4681C149.31 11.3393 149.225 11.1877 149.175 11.0236C149.124 10.8594 149.109 10.6864 149.131 10.5159C149.121 10.3489 149.145 10.1816 149.201 10.0238C149.256 9.86599 149.342 9.72073 149.454 9.5964C149.566 9.47207 149.702 9.37114 149.853 9.29941C150.004 9.22768 150.168 9.18657 150.335 9.17847ZM151.267 29.139C151.251 29.2213 151.211 29.2971 151.153 29.3568C151.094 29.4166 151.019 29.4577 150.937 29.475H149.733C149.651 29.4577 149.576 29.4166 149.517 29.3568C149.459 29.2971 149.419 29.2213 149.403 29.139V16.1574C149.403 16.0243 149.6 15.7897 149.733 15.7897H150.937C151.07 15.7897 151.267 16.0243 151.267 16.1574V29.139Z" fill="white" stroke="white" stroke-width="0.45" stroke-miterlimit="10"/>
<path d="M162.176 24.0301L166.061 16.1575C166.226 15.8215 166.296 15.7898 166.562 15.7898H167.893C168.033 15.7898 168.096 15.8532 168.096 15.9546C168.078 16.0852 168.033 16.2105 167.963 16.3222L161.51 29.475H160.578L154.138 16.3222C154.075 16.2152 154.034 16.0967 154.018 15.9736C154.018 15.8722 154.081 15.8088 154.221 15.8088H155.552C155.818 15.8088 155.888 15.8405 156.053 16.1765L159.925 24.0491C160.333 24.871 160.689 25.7179 160.99 26.5846H161.123C161.42 25.7117 161.771 24.8585 162.176 24.0301Z" fill="white" stroke="white" stroke-width="0.45" stroke-miterlimit="10"/>
<path d="M170.391 23.1617C170.689 26.5339 173.224 28.1376 176.191 28.1376C178.135 28.0991 179.989 27.3084 181.363 25.9317C181.534 25.7669 181.597 25.7352 181.731 25.7352C181.787 25.7344 181.843 25.7458 181.894 25.7688C181.946 25.7918 181.992 25.8258 182.028 25.8683L182.631 26.4325C182.673 26.4712 182.706 26.5182 182.729 26.5706C182.752 26.623 182.764 26.6796 182.764 26.7368C182.742 26.9314 182.647 27.1103 182.498 27.2375C181.678 28.0743 180.695 28.7339 179.61 29.1755C178.526 29.617 177.362 29.8312 176.191 29.8047C171.753 29.8047 168.489 27.003 168.489 22.6293C168.489 18.6929 171.354 15.4539 175.994 15.4539C180.634 15.4539 183.03 18.357 183.03 21.894C183.03 22.5278 182.967 23.1617 182.967 23.1617H170.391ZM170.422 21.5644H181.128C181.065 18.9275 179.265 17.0893 175.994 17.0893C173.522 17.0893 170.923 18.2936 170.422 21.5644Z" fill="white" stroke="white" stroke-width="0.45" stroke-miterlimit="10"/>
<path d="M205.361 29.2023C205.357 29.2721 205.328 29.3381 205.279 29.3881C205.23 29.4381 205.165 29.4689 205.095 29.4749H203.764C203.693 29.4704 203.626 29.4402 203.576 29.3901C203.526 29.3399 203.496 29.2731 203.491 29.2023V20.9303H187.771V29.2023C187.767 29.2721 187.738 29.3381 187.689 29.3881C187.64 29.4381 187.575 29.4689 187.505 29.4749H186.168C186.098 29.4689 186.033 29.4381 185.984 29.3881C185.935 29.3381 185.906 29.2721 185.901 29.2023V9.71714C185.904 9.64688 185.933 9.58019 185.982 9.52989C186.031 9.47958 186.097 9.44921 186.168 9.44458H187.505C187.575 9.44921 187.641 9.47958 187.69 9.52989C187.739 9.58019 187.768 9.64688 187.771 9.71714V19.2569H203.517V9.71714C203.52 9.64585 203.549 9.57832 203.6 9.52786C203.65 9.4774 203.718 9.44768 203.789 9.44458H205.12C205.19 9.44921 205.256 9.47958 205.306 9.52989C205.355 9.58019 205.384 9.64688 205.387 9.71714L205.361 29.2023Z" fill="#DF591D" stroke="#DF591D" stroke-width="0.45" stroke-miterlimit="10"/>
<path d="M209.494 23.1617C209.798 26.5339 212.334 28.1376 215.3 28.1376C217.245 28.0991 219.099 27.3084 220.473 25.9317C220.638 25.7669 220.707 25.7352 220.84 25.7352C220.897 25.7356 220.952 25.7476 221.003 25.7705C221.055 25.7934 221.101 25.8267 221.138 25.8683L221.772 26.4325C221.814 26.4712 221.848 26.5182 221.871 26.5706C221.894 26.623 221.905 26.6796 221.905 26.7368C221.883 26.9314 221.788 27.1103 221.639 27.2375C220.816 28.0782 219.828 28.7401 218.737 29.1818C217.647 29.6236 216.477 29.8356 215.3 29.8047C210.863 29.8047 207.593 27.003 207.593 22.6293C207.593 18.6929 210.464 15.4539 215.098 15.4539C219.731 15.4539 222.14 18.357 222.14 21.894C222.14 22.5279 222.07 23.1617 222.07 23.1617H209.494ZM209.526 21.5644H220.238C220.169 18.9275 218.337 17.0893 215.098 17.0893C212.632 17.0893 210.027 18.2936 209.526 21.5644Z" fill="#DF591D" stroke="#DF591D" stroke-width="0.45" stroke-miterlimit="10"/>
<path d="M235.819 27.5354C234.011 29.0094 231.749 29.8113 229.417 29.8047C226.013 29.8047 224.276 28.0679 224.276 25.9C224.276 23.8336 225.842 22.0968 229.714 22.0968H235.92V21.3615C235.92 18.9275 234.785 17.1209 230.849 17.1209C228.016 17.1209 226.615 18.1224 226.615 20.1635V20.3283C226.615 20.4614 226.412 20.5312 226.279 20.5312H225.081C224.948 20.5312 224.745 20.2966 224.745 20.1635V19.9924C224.745 17.159 226.78 15.4539 230.849 15.4539C235.92 15.4539 237.758 18.0591 237.758 21.5263V29.1328C237.746 29.2174 237.706 29.2957 237.646 29.3562C237.585 29.4166 237.507 29.4561 237.422 29.4687H236.522C236.357 29.4687 236.224 29.3293 236.155 29.0314L235.888 27.5291L235.819 27.5354ZM235.92 25.7986V23.6308H229.714C226.913 23.6308 226.146 24.8351 226.146 25.9C226.146 27.2375 227.344 28.1376 229.417 28.1376C231.785 28.1046 234.074 27.2814 235.92 25.7986Z" fill="#DF591D" stroke="#DF591D" stroke-width="0.45" stroke-miterlimit="10"/>
<path d="M242.627 29.139C242.611 29.2213 242.571 29.2971 242.512 29.3568C242.454 29.4166 242.379 29.4577 242.297 29.475H241.093C241.011 29.4577 240.936 29.4166 240.877 29.3568C240.818 29.2971 240.779 29.2213 240.763 29.139V7.80931C240.763 7.6762 240.959 7.448 241.093 7.448H242.297C242.43 7.448 242.627 7.6762 242.627 7.80931V29.139Z" fill="#DF591D" stroke="#DF591D" stroke-width="0.45" stroke-miterlimit="10"/>
<path d="M244.832 17.4568C244.756 17.4467 244.685 17.4123 244.631 17.3585C244.576 17.3048 244.54 17.2348 244.528 17.1589V16.0876C244.54 16.0118 244.576 15.9417 244.631 15.888C244.685 15.8343 244.756 15.7998 244.832 15.7897H247V12.4873C247 12.3542 247.203 12.1196 247.336 12.1196H248.534C248.667 12.1196 248.87 12.3542 248.87 12.4873V15.7897H253.973C254.048 15.8001 254.118 15.8348 254.172 15.8886C254.226 15.9424 254.26 16.0123 254.271 16.0876V17.1589C254.26 17.2342 254.226 17.3041 254.172 17.3579C254.118 17.4117 254.048 17.4464 253.973 17.4568H248.87V24.8477C248.87 27.3135 249.967 28.1502 251.672 28.1502C252.542 28.1125 253.381 27.8095 254.074 27.2818C254.239 27.1487 254.309 27.1487 254.372 27.1487C254.436 27.1487 254.537 27.2121 254.607 27.3135L255.076 28.0171C255.145 28.1031 255.191 28.2058 255.209 28.315C255.204 28.3699 255.186 28.4227 255.156 28.4691C255.126 28.5154 255.086 28.5539 255.038 28.5812C254.047 29.3596 252.83 29.7936 251.57 29.8173C248.832 29.8173 247 28.315 247 24.8477V17.4568H244.832Z" fill="#DF591D" stroke="#DF591D" stroke-width="0.45" stroke-miterlimit="10"/>
<path d="M259.811 18.3949H259.912C260.555 17.4805 261.41 16.7354 262.403 16.2232C263.396 15.711 264.499 15.447 265.617 15.4538C269.42 15.4538 271.322 17.6596 271.322 20.7973V29.139C271.304 29.2214 271.263 29.297 271.203 29.3566C271.144 29.4162 271.068 29.4573 270.986 29.475H269.788C269.705 29.4588 269.628 29.4183 269.568 29.3584C269.509 29.2985 269.468 29.2221 269.452 29.139V20.7973C269.452 18.5597 267.918 17.1209 265.579 17.1209C264.341 17.1431 263.138 17.5328 262.122 18.2405C261.106 18.9481 260.324 19.9418 259.874 21.0952V29.139C259.858 29.2213 259.819 29.2971 259.76 29.3568C259.701 29.4166 259.626 29.4577 259.544 29.475H258.34C258.258 29.4577 258.183 29.4166 258.125 29.3568C258.066 29.2971 258.026 29.2213 258.01 29.139V7.80931C258.01 7.6762 258.207 7.448 258.34 7.448H259.544C259.678 7.448 259.874 7.6762 259.874 7.80931L259.811 18.3949Z" fill="#DF591D" stroke="#DF591D" stroke-width="0.45" stroke-miterlimit="10"/>
<path d="M37.601 37.6393H14.1035L5.17224 19.8656L9.91993 10.4146H7.58095L2.92834 19.6627L2.84594 19.8592L2.85228 19.8656L2.8396 19.8846L12.8167 39.7311H38.8878L41.3916 34.7552H39.0463L37.601 37.6393Z" fill="white"/>
<path d="M48.8652 19.8401L38.8881 0H12.817L10.3005 5.00757H12.6395L14.1038 2.09177H37.6013L46.5326 19.8655L41.7659 29.3482H44.1112L48.7765 20.062L48.8589 19.8655H48.8525L48.8652 19.8401Z" fill="white"/>
<path d="M49.0678 29.7981C48.6481 29.7977 48.2369 29.9166 47.8822 30.1411C47.5275 30.3656 47.244 30.6863 47.0648 31.0659H17.7356C17.1893 31.0659 16.6653 30.8488 16.2789 30.4625C15.8926 30.0762 15.6755 29.5522 15.6755 29.0058C15.6755 28.4594 15.8926 27.9355 16.2789 27.5491C16.6653 27.1628 17.1893 26.9457 17.7356 26.9457H33.4112C33.9554 26.9673 34.4982 26.8787 35.0073 26.6854C35.5164 26.492 35.9811 26.1978 36.3737 25.8205C36.7663 25.4431 37.0787 24.9903 37.2921 24.4893C37.5054 23.9883 37.6154 23.4494 37.6154 22.9048C37.6154 22.3603 37.5054 21.8213 37.2921 21.3203C37.0787 20.8193 36.7663 20.3665 36.3737 19.9892C35.9811 19.6118 35.5164 19.3176 35.0073 19.1243C34.4982 18.9309 33.9554 18.8423 33.4112 18.8639H17.7356C17.1893 18.8639 16.6653 18.6468 16.2789 18.2605C15.8926 17.8742 15.6755 17.3502 15.6755 16.8038C15.6755 16.2574 15.8926 15.7335 16.2789 15.3471C16.6653 14.9608 17.1893 14.7437 17.7356 14.7437H33.4112C33.9554 14.7653 34.4982 14.6767 35.0073 14.4834C35.5164 14.29 35.9811 13.9958 36.3737 13.6185C36.7663 13.2411 37.0787 12.7883 37.2921 12.2873C37.5054 11.7863 37.6154 11.2474 37.6154 10.7028C37.6154 10.1583 37.5054 9.61931 37.2921 9.11829C37.0787 8.61728 36.7663 8.16452 36.3737 7.78716C35.9811 7.4098 35.5164 7.11562 35.0073 6.92226C34.4982 6.7289 33.9554 6.64033 33.4112 6.66189H4.47506C4.24979 6.17581 3.8653 5.78123 3.38523 5.54343C2.90516 5.30563 2.35829 5.23888 1.83511 5.35422C1.31194 5.46956 0.843825 5.76007 0.508248 6.17769C0.17267 6.5953 -0.0102539 7.11499 -0.0102539 7.65073C-0.0102539 8.18646 0.17267 8.70615 0.508248 9.12377C0.843825 9.54138 1.31194 9.83191 1.83511 9.94725C2.35829 10.0626 2.90516 9.99582 3.38523 9.75802C3.8653 9.52022 4.24979 9.12564 4.47506 8.63956H33.4366C33.9829 8.63956 34.5069 8.85661 34.8933 9.24295C35.2796 9.62928 35.4967 10.1533 35.4967 10.6996C35.4967 11.246 35.2796 11.77 34.8933 12.1563C34.5069 12.5427 33.9829 12.7597 33.4366 12.7597H17.7356C16.6647 12.7597 15.6377 13.1851 14.8805 13.9423C14.1233 14.6996 13.6979 15.7266 13.6979 16.7975C13.6979 17.8683 14.1233 18.8954 14.8805 19.6526C15.6377 20.4098 16.6647 20.8352 17.7356 20.8352H33.4112C33.9387 20.8645 34.4349 21.0946 34.7979 21.4783C35.1609 21.862 35.3632 22.3702 35.3632 22.8985C35.3632 23.4267 35.1609 23.9349 34.7979 24.3186C34.4349 24.7023 33.9387 24.9325 33.4112 24.9617H17.7356C16.658 24.9617 15.6246 25.3898 14.8626 26.1518C14.1006 26.9138 13.6725 27.9472 13.6725 29.0248C13.6725 30.1024 14.1006 31.1359 14.8626 31.8979C15.6246 32.6599 16.658 33.0879 17.7356 33.0879H47.0902C47.2752 33.4482 47.5558 33.7505 47.9013 33.9619C48.2468 34.1732 48.6438 34.2853 49.0488 34.286C49.5963 34.2273 50.1028 33.9683 50.4709 33.5588C50.8389 33.1492 51.0425 32.618 51.0425 32.0674C51.0425 31.5168 50.8389 30.9856 50.4709 30.576C50.1028 30.1665 49.5963 29.9075 49.0488 29.8489L49.0678 29.7981Z" fill="#DF591D"/>
</g>
<defs>
<clipPath id="clip0">
<rect width="272" height="45.1823" fill="white"/>
</clipPath>
</defs>
</svg>
