<?xml version="1.0" encoding="utf-8"?>
<!-- Generator: Adobe Illustrator 25.4.1, SVG Export Plug-In . SVG Version: 6.00 Build 0)  -->
<svg version="1.1" xmlns="http://www.w3.org/2000/svg" xmlns:xlink="http://www.w3.org/1999/xlink" x="0px" y="0px"
	 viewBox="0 0 927.3 153.8" style="enable-background:new 0 0 927.3 153.8;" xml:space="preserve">
<g id="Open">
	<polyline id="hexagon-bottom" class="st0" points="34.6,26.2 13.7,67.5 46.1,131.5 130.2,131.5 142.1,108.1 	"/>
	<polyline id="hexagon-top" class="st1" points="142.1,108.1 162.6,67.5 130.2,3.5 46.1,3.5 34.6,26.2 	"/>
	<rect id="block-end" x="125.5" y="98.7" class="st2" width="33.1" height="18.8"/>
	<rect id="block-start" x="18.1" y="16.8" class="st2" width="33.1" height="18.8"/>
	<circle id="circle-start" class="st3" cx="8.1" cy="26.2" r="8.1"/>
	<circle id="circle-end" class="st3" cx="168.6" cy="108.1" r="8.1"/>
	<path id="line" class="st4" d="M168.6,108.1H60.5c-5.7,0-10.2-4.6-10.2-10.2s4.6-10.2,10.2-10.2l53.5,0c5.7,0,10.2-4.6,10.2-10.2
		s-4.6-10.2-10.2-10.2l-53.5,0c-5.7,0-10.2-4.6-10.2-10.2s4.6-10.2,10.2-10.2l53.5,0c5.7,0,10.2-4.6,10.2-10.2
		c0-5.7-4.6-10.2-10.2-10.2H8"/>
</g>
<g id="Layer_2">
	<g id="word-objective">
		<path class="st5" d="M231.5,30c-22,0-37.3,14.7-37.3,35.9c0,21.1,15.4,35.9,37.3,35.9c21.9,0,37.2-14.7,37.2-35.9
			C268.7,44.8,253.4,30,231.5,30z M231.5,36.9c17.5,0,29.6,11.9,29.6,29c0,16.8-12.5,29-29.6,29c-17.2,0-29.6-12.2-29.6-29
			C201.8,48.9,214,36.9,231.5,36.9z"/>
		<path class="st5" d="M325.6,76.7c0-14.8-9.5-25.1-23.1-25.1c-3.7-0.1-7.5,0.7-10.8,2.3c-3,1.5-5.6,3.6-7.6,6.2V26.2
			c0-0.7-0.9-1.8-1.7-1.8h-4.1l-0.2,0c-0.4,0.1-0.8,0.3-1,0.6c-0.3,0.3-0.5,0.7-0.5,1.1l0,72.8l0,0.1c0.1,0.4,0.3,0.8,0.6,1
			c0.3,0.3,0.6,0.5,1,0.6l0.1,0l3.2,0c0.5,0,1-0.3,1.3-0.6c0.4-0.4,0.6-0.8,0.6-1.3l0.7-3.7c2.2,2,4.8,3.7,7.6,4.8
			c3.1,1.2,6.3,1.9,9.6,1.9c0.1,0,0.2,0,0.3,0c6.5,0,12.4-2.2,16.7-6.3C323,91,325.6,84.5,325.6,76.7z M318,76.7
			c0,10.7-7,18.2-16.9,18.2c-3.3,0-6.4-0.6-9.4-1.9c-2.9-1.3-5.5-3.1-7.6-5.5V71c1.4-3.6,3.8-6.7,7-8.9c3.2-2.2,7-3.5,10.9-3.5
			C311.4,58.5,318,66,318,76.7z"/>
		<path class="st5" d="M342.2,33.5c-0.2-0.6-0.6-1.2-1-1.7c-0.4-0.5-1-0.9-1.5-1.2c-0.6-0.3-1.2-0.4-1.9-0.5l0,0l0,0
			c-0.7,0-1.3,0.2-1.9,0.5c-0.6,0.3-1.1,0.7-1.5,1.2c-0.4,0.5-0.8,1-1,1.7c-0.2,0.6-0.3,1.2-0.3,1.9c-0.1,0.7,0,1.3,0.2,1.9
			c0.2,0.6,0.5,1.2,1,1.7c0.4,0.5,1,0.9,1.6,1.2c0.6,0.3,1.3,0.4,1.9,0.4c0.7,0,1.3-0.1,1.9-0.4c0.6-0.3,1.2-0.7,1.6-1.2
			c0.4-0.5,0.8-1.1,1-1.7c0.2-0.6,0.3-1.3,0.2-1.9C342.5,34.8,342.4,34.1,342.2,33.5z"/>
		<path class="st5" d="M339.8,52.8h-4.1c-0.8,0-1.7,1.1-1.7,1.9v61.1c0,7.2-3.4,11.2-9.6,11.2c-2.9-0.2-5.5-1.4-7.5-3.4
			c-0.3-0.4-0.8-0.6-1.3-0.7l-0.1,0l-0.1,0c-0.6,0.1-1.1,0.4-1.5,0.8l-2,2.1c-0.4,0.3-0.6,0.8-0.7,1.4c0,0.3,0.1,0.5,0.2,0.8
			c0.1,0.2,0.3,0.4,0.4,0.6c1.7,1.7,3.6,3,5.8,4c2.1,0.9,4.4,1.3,6.7,1.3c0.1,0,0.1,0,0.2,0c10.3,0,17-7.1,17-18.1V54.7
			C341.5,53.9,340.6,52.8,339.8,52.8z"/>
		<path class="st5" d="M375.6,51.7c-15.2,0-26.2,10.5-26.2,25.1c0,14.8,11,25.1,26.8,25.1c0.2,0,0.5,0,0.7,0c3.9,0,7.6-0.7,11.2-2.2
			c3.8-1.5,7.2-3.8,10-6.7c0.6-0.5,1-1.3,1.1-2.2c0-0.3-0.1-0.6-0.2-0.8c-0.1-0.3-0.3-0.5-0.5-0.7l-2-1.9c-0.2-0.2-0.4-0.4-0.7-0.5
			c-0.2-0.1-0.5-0.2-0.8-0.2c-0.7,0-1.1,0.3-1.7,0.8c-4.6,4.6-10.7,7.2-17.2,7.3c-8.4,0-17.8-4.2-19.1-15.8h42.7l0.1-0.5
			c0-0.1,0.2-2.2,0.2-4.4C400.2,60.5,390.5,51.7,375.6,51.7z M392.3,72.5h-35.1c2.5-13,14.6-14,18.3-14
			C385.6,58.4,391.9,63.7,392.3,72.5z"/>
		<path class="st5" d="M433.8,51.7c-15.3,0-25.9,10.3-25.9,25.1s11.1,25.1,27,25.1c0.2,0,0.4,0,0.7,0c4.1,0,8.1-0.9,11.8-2.5
			c3.9-1.8,7.4-4.4,10.1-7.7c0.4-0.4,0.7-1,0.7-1.7c0-0.3-0.1-0.5-0.2-0.8c-0.1-0.2-0.3-0.5-0.5-0.6l-1.9-1.9
			c-0.2-0.2-0.4-0.4-0.6-0.5c-0.5-0.2-1.1-0.2-1.6,0c-0.2,0.1-0.4,0.3-0.6,0.4c-6.1,5.9-11.3,8.4-18,8.4c-11.4,0-19.4-7.5-19.4-18.2
			c-0.1-2.4,0.3-4.8,1.2-7.1c0.9-2.3,2.2-4.3,4-6c1.7-1.7,3.8-3,6.1-3.9c2.3-0.9,4.7-1.3,7.1-1.2c9,0,15.6,4.8,16.8,12.3
			c0.1,0.4,0.3,0.8,0.6,1.1c0.3,0.3,0.7,0.5,1.2,0.5h4.1c0,0,0,0,0,0c0.4,0,0.8-0.2,1.2-0.5c0.3-0.3,0.5-0.7,0.6-1.1l0-0.1
			c0-0.2-0.1-1.7-0.3-2.4C455.9,56.9,444,51.7,433.8,51.7z"/>
		<path class="st5" d="M500.6,94.7l-1.6-2.4c-0.1-0.2-0.3-0.4-0.5-0.6c-0.2-0.2-0.5-0.3-0.8-0.3c-0.4,0-0.7,0-1.4,0.6
			c-2.3,1.7-5,2.7-7.8,2.8c-6.1,0-8.9-3.4-8.9-10.7V59.7l16.8,0c0.4-0.1,0.8-0.2,1-0.5c0.3-0.3,0.5-0.6,0.5-1.1l0-3.7
			c-0.1-0.4-0.2-0.7-0.5-1c-0.3-0.3-0.6-0.5-1.1-0.5h-16.7V42.1c0-0.8-0.9-1.9-1.7-1.9h-4.1c-0.8,0-1.7,1.1-1.7,1.9v10.7l-6.9,0
			c-0.4,0.1-0.7,0.2-1,0.5c-0.3,0.3-0.5,0.6-0.5,1.1l0,3.7c0.1,0.4,0.2,0.7,0.5,1c0.3,0.3,0.6,0.5,1,0.5l6.9,0v24.6
			c0,11.3,5.7,17.5,16.2,17.5c4.4-0.1,8.7-1.6,12.1-4.3c0.2-0.1,0.5-0.3,0.6-0.6c0.2-0.2,0.2-0.5,0.3-0.8l0-0.1l0-0.1
			C501,95.5,500.8,95.1,500.6,94.7z"/>
		<path class="st5" d="M514.5,52.8h-4.1c-0.8,0-1.7,1.1-1.7,1.9v44.3l0,0.1c0.1,0.4,0.3,0.8,0.5,1c0.3,0.3,0.6,0.5,1,0.6l4.3,0
			l0.1,0c0.4-0.1,0.8-0.3,1-0.6c0.3-0.3,0.5-0.7,0.6-1.1l0-44.4C516.2,53.9,515.3,52.8,514.5,52.8z"/>
		<path class="st5" d="M516.9,33.6c-0.2-0.6-0.5-1.2-1-1.7c-0.4-0.5-1-0.9-1.5-1.2c-0.6-0.3-1.2-0.4-1.9-0.5l0,0l0,0
			c-0.7,0-1.3,0.2-1.9,0.5c-0.6,0.3-1.1,0.7-1.5,1.2c-0.4,0.5-0.8,1-1,1.7c-0.2,0.6-0.3,1.2-0.3,1.9c-0.1,0.6,0,1.3,0.2,1.9
			c0.2,0.6,0.5,1.2,1,1.7c0.4,0.5,1,0.9,1.6,1.2c0.6,0.3,1.3,0.4,1.9,0.4c0.7,0,1.3-0.1,1.9-0.4c0.6-0.3,1.2-0.7,1.6-1.2
			c0.4-0.5,0.8-1.1,1-1.7c0.2-0.6,0.3-1.3,0.2-1.9C517.2,34.8,517.1,34.2,516.9,33.6z"/>
		<path class="st5" d="M572.3,52.8h-4.5c-1.2,0-1.6,0.3-2.2,1.6l-13.2,26.8l0,0c-1.2,2.5-2.3,5.1-3.3,7.8c-1-2.6-2.1-5.2-3.3-7.7
			l-13.2-26.8c-0.6-1.3-1.1-1.6-2.2-1.6h-4.5c-1,0-1.3,0.6-1.3,1.2c0.1,0.5,0.2,1,0.5,1.4l22,44.8l0.2,0.3h3.9l22.1-45.1
			c0.3-0.5,0.5-1,0.5-1.6C573.6,53.4,573.3,52.8,572.3,52.8z"/>
		<path class="st5" d="M599.9,51.7c-15.2,0-26.2,10.5-26.2,25.1c0,14.8,11,25.1,26.8,25.1c0.2,0,0.5,0,0.7,0c3.9,0,7.6-0.7,11.2-2.2
			c3.8-1.5,7.2-3.8,10-6.7c0.6-0.5,1-1.3,1.1-2.2c0-0.3-0.1-0.6-0.2-0.8c-0.1-0.3-0.3-0.5-0.5-0.7l-2-1.9c-0.2-0.2-0.4-0.4-0.7-0.5
			c-0.2-0.1-0.5-0.2-0.8-0.2c-0.7,0-1.1,0.2-1.7,0.8c-4.6,4.6-10.7,7.2-17.2,7.3c-8.4,0-17.8-4.2-19.1-15.8h42.7l0.1-0.5
			c0-0.1,0.2-2.2,0.2-4.4C624.5,60.5,614.9,51.7,599.9,51.7z M581.6,72.5c2.4-13,14.6-14,18.3-14c10.1,0,16.4,5.2,16.9,14H581.6z"/>
	</g>
	<g id="word-health">
		<path class="st3" d="M699.2,31.2l-4.6,0c-0.4,0-0.8,0.2-1,0.5c-0.3,0.3-0.4,0.7-0.5,1.1v31.9h-52.5V32.7c0-0.4-0.2-0.8-0.4-1
			c-0.3-0.3-0.6-0.4-1.1-0.5l-4.6,0c-0.4,0-0.8,0.2-1,0.5c-0.3,0.3-0.4,0.6-0.4,1.1l0,66.5c0,0.4,0.2,0.7,0.5,1
			c0.3,0.3,0.6,0.4,1.1,0.5l4.6,0c0.4,0,0.7-0.2,1-0.5c0.3-0.3,0.4-0.6,0.5-1.1V71.5H693l0,27.6c0,0.4,0.2,0.8,0.5,1
			c0.3,0.3,0.6,0.4,1.1,0.5l4.6,0c0.4,0,0.7-0.2,1-0.5c0.3-0.3,0.4-0.6,0.5-1l0.1-66.5c0-0.4-0.2-0.8-0.4-1
			C700,31.4,699.6,31.2,699.2,31.2z"/>
		<path class="st3" d="M733.2,51.7C718,51.7,707,62.2,707,76.7c0,14.8,11.1,25.1,26.9,25.1c0.3,0,0.5,0,0.8,0
			c3.8,0,7.6-0.7,11.2-2.2c3.8-1.5,7.2-3.8,10.1-6.7c0.6-0.5,1-1.3,1.1-2.2c0-0.3-0.1-0.6-0.2-0.8c-0.1-0.3-0.3-0.5-0.5-0.7
			l-2.1-1.9c-0.2-0.2-0.4-0.4-0.7-0.5c-0.2-0.1-0.5-0.2-0.8-0.2c-0.7,0-1.1,0.3-1.7,0.8c-4.6,4.6-10.7,7.2-17.2,7.3
			c-8.4,0-17.8-4.2-19.1-15.8h42.7l0.1-0.5c0-0.1,0.2-2.2,0.2-4.4C757.8,60.5,748.2,51.7,733.2,51.7z M714.9,72.5
			c2.4-13,14.6-14,18.3-14c10,0,16.4,5.4,16.9,14H714.9z"/>
		<path class="st3" d="M786.9,51.7c-13.8,0-21.4,5.7-21.4,16.1v0.6c0,0.7,0.9,1.9,1.7,1.9h4.1c0.7,0,1.7-0.4,1.7-1.3v-0.6
			c0-6.6,4.5-9.8,13.8-9.8c11.4,0,16.7,4.4,16.7,13.9v1.9H783c-12,0-19.1,5.1-19.1,13.6c0,8.5,7.1,13.9,18.1,13.9c0,0,0.1,0,0.1,0
			c7.8,0,15.4-2.6,21.5-7.4l0.8,4.3c0.4,1.7,1.3,2,1.8,2l3.2,0c0.4-0.1,0.8-0.3,1.1-0.6c0.3-0.3,0.5-0.7,0.6-1.2V73
			C811.1,63.2,806.9,51.7,786.9,51.7z M803.6,80.7v6.5c-6.1,4.8-13.8,7.6-21.6,7.7c-6.5,0-10.5-2.7-10.5-7c0-4.5,4.2-7.1,11.6-7.1
			H803.6z"/>
		<path class="st3" d="M825.9,24.4h-4.1c-0.8,0-1.7,1.1-1.7,1.8v72.7l0,0.1c0.1,0.4,0.3,0.8,0.6,1.1c0.3,0.3,0.6,0.5,1,0.6l4.3,0
			l0.1,0c0.4-0.1,0.8-0.3,1-0.6c0.3-0.3,0.5-0.7,0.6-1.1l0-72.8C827.6,25.5,826.7,24.4,825.9,24.4z"/>
		<path class="st3" d="M870,94.7l-1.6-2.4c-0.3-0.5-0.9-0.8-1.3-0.8c-0.4,0-0.7,0-1.4,0.6c-2.3,1.7-5,2.7-7.8,2.8
			c-6.1,0-8.9-3.4-8.9-10.7V59.7l16.9,0c0.4-0.1,0.7-0.2,1-0.5c0.3-0.3,0.5-0.6,0.5-1.1l0-3.7c-0.1-0.4-0.2-0.8-0.5-1
			c-0.3-0.3-0.6-0.5-1.1-0.5h-16.8V42.1c0-0.8-0.9-1.9-1.7-1.9h-4.1c-0.8,0-1.7,1.1-1.7,1.9v10.7l-6.9,0c-0.4,0.1-0.8,0.2-1,0.5
			c-0.3,0.3-0.5,0.6-0.5,1.1l0,3.7c0.1,0.4,0.2,0.7,0.5,1c0.3,0.3,0.6,0.4,1,0.5l6.9,0v24.6c0,11.3,5.7,17.5,16.2,17.5
			c4.4-0.1,8.7-1.6,12.1-4.3c0.2-0.1,0.5-0.3,0.6-0.6c0.2-0.2,0.2-0.5,0.3-0.8l0-0.1l0-0.1C870.5,95.5,870.3,95.1,870,94.7z"/>
		<path class="st3" d="M905.4,51.7c-3.9,0-7.8,0.9-11.2,2.7c-3.1,1.6-5.8,3.8-7.9,6.6l0.2-34.7c0-0.7-0.9-1.8-1.7-1.8h-4.1
			c-0.8,0-1.7,1.1-1.7,1.8v72.7l0,0.1c0.1,0.4,0.3,0.8,0.5,1.1c0.3,0.3,0.6,0.5,1,0.6l4.2,0l0.1,0c0.4-0.1,0.8-0.3,1-0.6
			c0.3-0.3,0.5-0.7,0.6-1.1l0-27.4c1.5-3.8,4.1-7,7.4-9.4c3.4-2.4,7.3-3.6,11.4-3.7c7.7,0,12.6,4.7,12.6,11.9v28.4l0,0.1
			c0.1,0.4,0.3,0.8,0.6,1.1s0.7,0.5,1.1,0.6l4.3,0l0.1,0c0.4-0.1,0.8-0.3,1-0.6c0.3-0.3,0.5-0.6,0.6-1l0-28.6
			C925.5,58.7,918,51.7,905.4,51.7z"/>
	</g>
	<g id="word-transforming">
		<path class="st6" d="M500,127.1c-0.2-0.2-0.5-0.4-0.8-0.4l-23.7,0l-0.1,0c-0.3,0-0.6,0.2-0.8,0.4c-0.2,0.2-0.4,0.5-0.4,0.8l0,2.1
			l0,0.1c0.1,0.3,0.2,0.6,0.4,0.8c0.2,0.2,0.5,0.4,0.8,0.4l9.3,0l0,20.7c0,0.3,0.1,0.6,0.4,0.9c0.2,0.2,0.5,0.4,0.9,0.4h2.7
			c0.3,0,0.6-0.1,0.9-0.4c0.2-0.2,0.4-0.5,0.4-0.9v-20.7h9.2l0.1,0c0.3-0.1,0.6-0.2,0.8-0.4c0.2-0.2,0.4-0.5,0.4-0.8l0-2.1l0-0.1
			C500.4,127.6,500.2,127.3,500,127.1z"/>
		<path class="st6" d="M521.8,144.6c-0.2-0.3-0.5-0.6-0.7-0.9c1.4-0.5,2.7-1.3,3.7-2.5c1.3-1.5,2-3.5,2-5.5c0-5.5-4.3-9-11-9
			l-10.9,0c-0.3,0-0.6,0.2-0.8,0.4c-0.2,0.2-0.4,0.5-0.4,0.8l0,0l0,24.1c0,0.3,0.2,0.6,0.4,0.8c0.2,0.2,0.5,0.4,0.9,0.4h2.7
			c0.3,0,0.6-0.1,0.9-0.4c0.2-0.2,0.4-0.5,0.4-0.9v-7.6h6.3l6,8.4c0.1,0.2,0.3,0.3,0.5,0.4c0.2,0.1,0.4,0.1,0.7,0.2h3.4
			c0.7,0,1.1-0.4,1.1-1c0-0.3-0.2-0.6-0.4-1L521.8,144.6z M509,131.4h6.7c3.7,0,5.8,1.6,5.8,4.3c0,2.7-2.2,4.2-5.8,4.2H509V131.4z"
			/>
		<path class="st6" d="M556,151.4l-12.5-24.7H541l-12.5,24.7c-0.1,0.2-0.3,0.5-0.3,0.8l0,0.2c0,0.5,0.4,1,1.2,1h2.7
			c0.8,0,1.1-0.1,1.6-1l2.1-4.2h13l2.2,4.2c0.4,0.8,0.8,1,1.5,1h2.7c0.7,0,1.2-0.5,1.2-1l0-0.2C556.2,151.8,556.1,151.6,556,151.4z
			 M546.3,143.4H538l2.9-5.6c0.4-0.7,0.9-2.1,1.3-3.1c0.4,1.1,0.9,2.4,1.3,3.1L546.3,143.4z"/>
		<path class="st6" d="M585,127c-0.2-0.2-0.5-0.4-0.9-0.4l-2.7,0c-0.3,0-0.6,0.1-0.8,0.4c-0.2,0.2-0.4,0.5-0.4,0.9v16.6
			c-0.2-0.3-0.5-0.6-0.7-0.8l-16.7-17.1l-2.4,0c-0.3,0-0.6,0.2-0.8,0.4c-0.2,0.2-0.4,0.5-0.4,0.9l0,24.2c0,0.3,0.2,0.6,0.4,0.8
			c0.2,0.2,0.5,0.4,0.9,0.4l2.8,0c0.3,0,0.6-0.2,0.8-0.4c0.2-0.2,0.4-0.5,0.4-0.9v-16.7c0.1,0.1,0.3,0.3,0.4,0.4l17.1,17.5h0.3l2,0
			c0.3,0,0.6-0.1,0.9-0.4c0.2-0.2,0.4-0.5,0.4-0.9l0-24.2C585.3,127.6,585.2,127.3,585,127z"/>
		<path class="st6" d="M605.2,137.8l-6.9-0.5c-3.3-0.2-3.3-1.7-3.3-2.2c0-2.4,2.5-4,6.2-4c3.7,0,5.9,1.3,6.1,3.6
			c0.1,0.9,0.5,1.4,1.4,1.4h2.5c1,0,1.4-0.6,1.4-1.2c0-7.8-8-8.7-11.4-8.7c-7.4,0-11.4,4.5-11.4,8.7c0,2.9,1.4,6.4,8.1,7l7,0.5
			c3.6,0.3,3.6,2,3.6,2.6c0,3.4-3.4,4.1-6.3,4.1c-7.1,0-7.1-3.3-7.1-4.3c0-0.9-0.5-1.4-1.3-1.4l-2.7,0c-0.8,0-1.3,0.5-1.3,1.2v0.4
			c0,4.2,3.2,8.8,12.3,8.8c8.5,0,11.6-5.3,11.6-8.8C613.7,142.5,612.6,138.3,605.2,137.8z"/>
		<path class="st6" d="M638.8,127.1c-0.2-0.2-0.5-0.4-0.8-0.4l-0.1,0l-18.4,0c-0.3,0-0.6,0.2-0.8,0.4c-0.2,0.2-0.4,0.5-0.4,0.9
			l0,24.2c0,0.3,0.2,0.6,0.4,0.8c0.2,0.2,0.5,0.4,0.8,0.4l0.1,0h2.7c0.3,0,0.6-0.1,0.9-0.4c0.2-0.2,0.4-0.5,0.4-0.9v-9.3h12.6l0.1,0
			c0.3,0,0.6-0.2,0.8-0.4c0.2-0.2,0.4-0.5,0.4-0.8l0-2.1l0-0.1c-0.1-0.3-0.2-0.6-0.4-0.8s-0.5-0.4-0.8-0.4l-12.8,0v-6.7h14.4l0.1,0
			c0.3-0.1,0.6-0.2,0.8-0.4c0.2-0.2,0.4-0.5,0.4-0.8l0-2.2l0-0.1C639.2,127.6,639,127.3,638.8,127.1z"/>
		<path class="st6" d="M654.6,126.3c-8.4,0-14.3,5.6-14.3,13.7s5.9,13.7,14.3,13.7c8.5,0,14.4-5.6,14.4-13.7S663,126.3,654.6,126.3z
			 M663.7,139.9c-0.1,2.4-1.1,4.6-2.8,6.2c-1.7,1.6-3.9,2.5-6.3,2.5c-2.4,0-4.6-0.9-6.3-2.5c-1.7-1.6-2.7-3.8-2.8-6.1
			c0.1-2.3,1.1-4.5,2.8-6.1c1.7-1.6,3.9-2.5,6.3-2.5c2.4,0,4.6,0.9,6.3,2.5C662.6,135.5,663.6,137.7,663.7,139.9z"/>
		<path class="st6" d="M691.5,144.6c-0.2-0.3-0.5-0.6-0.7-0.9c1.5-0.5,2.8-1.3,3.8-2.5c1.3-1.5,2-3.5,2-5.5c0-5.5-4.3-9-11-9h-10.8
			c-0.3,0-0.6,0.1-0.9,0.4c-0.2,0.2-0.4,0.5-0.4,0.8l0,0l0,24.1c0,0.3,0.2,0.6,0.4,0.8c0.2,0.2,0.5,0.4,0.9,0.4l2.7,0
			c0.3,0,0.6-0.2,0.8-0.4c0.2-0.2,0.4-0.5,0.4-0.9v-7.6h6.3l6,8.4c0.3,0.3,0.7,0.5,1.2,0.5h3.4c0.7,0,1.1-0.4,1.1-1
			c0-0.3-0.2-0.6-0.4-1L691.5,144.6z M691.3,135.7c0,2.7-2.2,4.2-5.9,4.2h-6.7v-8.6h6.7C689.1,131.4,691.3,133,691.3,135.7z"/>
		<path class="st6" d="M730.6,127.1c-0.2-0.2-0.5-0.4-0.9-0.4l-1.6,0c-0.3-0.1-0.6,0-0.9,0.1c-0.3,0.1-0.6,0.3-0.8,0.6l-10.5,15
			l-10.5-14.9c-0.2-0.2-0.4-0.4-0.6-0.6c-0.3-0.1-0.5-0.2-0.8-0.2h-1.7c-0.3,0-0.6,0.1-0.9,0.4c-0.2,0.2-0.4,0.5-0.4,0.9l0,24.3
			c0,0.3,0.2,0.6,0.4,0.8c0.2,0.2,0.5,0.3,0.9,0.4l2.7,0c0.3,0,0.6-0.2,0.8-0.4c0.2-0.2,0.4-0.5,0.4-0.9v-15.3
			c0.1,0.1,0.1,0.2,0.2,0.3l9.5,13.6l9.6-13.7c0.1-0.1,0.1-0.2,0.2-0.3l0,15.3c0,0.3,0.1,0.6,0.4,0.9c0.2,0.2,0.5,0.4,0.9,0.4l2.7,0
			c0.3,0,0.6-0.1,0.8-0.4c0.2-0.2,0.4-0.5,0.4-0.9l0-24.2C731,127.6,730.8,127.3,730.6,127.1z"/>
		<path class="st6" d="M741.1,126.7l-2.8,0c-0.3,0-0.6,0.1-0.8,0.4c-0.2,0.2-0.4,0.5-0.4,0.9l0,24.2c0,0.3,0.2,0.6,0.4,0.8
			c0.2,0.2,0.5,0.4,0.9,0.4l2.7,0c0.3,0,0.6-0.1,0.9-0.4c0.2-0.2,0.4-0.5,0.4-0.8l0-24.3c0-0.3-0.2-0.6-0.4-0.8
			C741.7,126.8,741.4,126.7,741.1,126.7z"/>
		<path class="st6" d="M774.4,127c-0.2-0.2-0.5-0.4-0.9-0.4l-2.8,0c-0.3,0-0.6,0.2-0.8,0.4c-0.2,0.2-0.4,0.5-0.4,0.9v16.7
			c-0.2-0.3-0.5-0.6-0.7-0.8L752,126.7h-2.3c-0.3,0-0.6,0.1-0.8,0.3c-0.2,0.2-0.4,0.4-0.4,0.7l0,0.1l0,24.3c0,0.3,0.2,0.6,0.4,0.8
			c0.2,0.2,0.5,0.3,0.9,0.4l2.7,0c0.3,0,0.6-0.2,0.8-0.4c0.2-0.2,0.3-0.5,0.4-0.9v-16.7c0.1,0.2,0.3,0.3,0.4,0.4l17,17.5h0.3h2.2
			c0.3,0,0.6-0.1,0.9-0.4c0.2-0.2,0.4-0.5,0.4-0.9l0-24.2C774.7,127.5,774.6,127.3,774.4,127z"/>
		<path class="st6" d="M791.2,139.4l-0.1,0c-0.3,0.1-0.6,0.2-0.8,0.4c-0.2,0.2-0.4,0.5-0.4,0.8l0,0.1l0,2.2c0,0.3,0.2,0.6,0.4,0.8
			c0.2,0.2,0.5,0.4,0.8,0.4l10.1,0c-0.4,2.5-3,5-8,5c-2.3-0.1-4.5-1.1-6.1-2.8c-1.6-1.7-2.5-3.9-2.5-6.2s0.9-4.6,2.5-6.2
			s3.8-2.7,6.1-2.8c6.4,0,7.3,4.1,7.5,5.4c0,0.4,0.3,1,1.2,1h2.6c1.3,0,1.3-0.9,1.3-1.2c-0.2-7.3-7.7-10-12.7-10
			c-3.6,0-7.2,1.5-9.7,4c-2.6,2.6-4,6-4,9.7s1.4,7.1,4,9.7c2.6,2.6,6,4,9.7,4c8.2,0,13.6-4.7,13.6-12.1v-2.3H791.2z"/>
	</g>
	<g id="word-care">
		<path class="st6" d="M833.3,131c4.3,0,7.2,2.1,7.5,5.5c0.1,0.9,0.5,1.4,1.4,1.4l2.5,0.1c1,0,1.4-0.6,1.4-1.2
			c0-5-4.5-10.4-12.7-10.4c-3.7,0-7.1,1.4-9.7,4c-2.6,2.6-4,6-4,9.7s1.4,7.1,4,9.7c2.6,2.6,6,4,9.7,4c8.7,0,12.7-5.2,12.7-10.1
			c0-0.3-0.1-1.1-1.4-1.1h-2.4c-1,0-1.5,0.5-1.5,1.4c-0.3,3.1-3.1,5-7.4,5c-2.3-0.1-4.5-1.1-6.1-2.8c-1.6-1.7-2.5-3.9-2.5-6.2
			s0.9-4.6,2.5-6.2C828.9,132.1,831,131.1,833.3,131z"/>
		<path class="st6" d="M874.8,151.4l-12.5-24.7h-2.4l-12.5,24.7c-0.1,0.2-0.3,0.5-0.3,0.8l0,0.2c0,0.6,0.5,1,1.1,1h2.7
			c0.8,0,1.1-0.1,1.6-1l2.1-4.2h13l2.1,4.3c0.4,0.8,0.8,0.9,1.5,0.9h2.7c0.7,0,1.1-0.4,1.1-1l0-0.1C875,151.9,875,151.6,874.8,151.4
			z M865.2,143.4h-8.3l2.9-5.6c0.4-0.7,0.9-2,1.3-3.1c0.4,1.1,1,2.4,1.3,3.1L865.2,143.4z"/>
		<path class="st6" d="M896.1,144.7c-0.2-0.3-0.5-0.6-0.7-0.9c1.4-0.5,2.7-1.3,3.7-2.5c1.3-1.5,2-3.5,2-5.5c0-5.5-4.3-9-11-9
			l-10.7,0c-0.3,0-0.7,0.1-0.9,0.3c-0.3,0.2-0.4,0.5-0.5,0.8l0,0.1l0.1,24.2c0,0.3,0.1,0.6,0.4,0.9c0.2,0.2,0.5,0.4,0.9,0.4l2.6,0
			c0.3,0,0.6-0.1,0.9-0.4c0.2-0.2,0.4-0.5,0.4-0.9v-7.6h6.3l6,8.4c0.1,0.2,0.3,0.3,0.5,0.4c0.2,0.1,0.4,0.1,0.7,0.2h3.6
			c0.7,0,1.1-0.4,1.1-1c0-0.3-0.2-0.6-0.4-1L896.1,144.7z M895.8,135.7c0,2.7-2.2,4.2-5.9,4.2h-6.7v-8.6h6.7
			C893.6,131.4,895.8,133,895.8,135.7z"/>
		<path class="st6" d="M927.3,149.9c0-0.3-0.2-0.6-0.4-0.8c-0.2-0.2-0.5-0.4-0.8-0.4l-15.3,0v-6.7h13.5l0.1,0
			c0.3-0.1,0.6-0.2,0.8-0.4c0.2-0.2,0.4-0.5,0.4-0.8l0-2.2l0-0.1c-0.1-0.3-0.2-0.6-0.4-0.8c-0.2-0.2-0.5-0.4-0.8-0.4l-13.6,0v-5.8
			h14.7l0.1,0c0.3-0.1,0.6-0.2,0.8-0.4c0.2-0.2,0.4-0.5,0.4-0.8l0-2.1l0-0.1c-0.1-0.3-0.2-0.6-0.4-0.8c-0.2-0.2-0.5-0.4-0.8-0.4
			l-18.8,0c-0.3,0-0.6,0.1-0.9,0.4c-0.2,0.2-0.4,0.5-0.4,0.9l0,24.2c0,0.3,0.2,0.6,0.4,0.8c0.2,0.2,0.5,0.4,0.9,0.4H926l0.1,0
			c0.3,0,0.6-0.2,0.8-0.4c0.2-0.2,0.4-0.5,0.4-0.8l0-2.1L927.3,149.9z"/>
	</g>
</g>
</svg>
