<?xml version="1.0" encoding="utf-8"?>
<!-- Generator: Adobe Illustrator 27.3.1, SVG Export Plug-In . SVG Version: 6.00 Build 0)  -->
<svg version="1.1" id="Layer_1" xmlns="http://www.w3.org/2000/svg" xmlns:xlink="http://www.w3.org/1999/xlink" x="0px" y="0px"
	 viewBox="0 0 337.9 282.3" style="enable-background:new 0 0 337.9 282.3;" xml:space="preserve">
<style type="text/css">
	.st0{fill:#DF591D;}
</style>
<g>
	<path class="st0" d="M242.3,166.7c-5.3,0-8.1,0-10.9,0c-61.8,0-123.6,0-185.4-0.1c-4.7,0-9.5-0.5-14-1.6
		c-10.6-2.7-18.4-12.5-18.6-22.8c-0.2-11,7-21.1,18-24.1c5-1.4,10.4-1.8,15.6-1.8c61.5-0.1,123.1-0.1,184.6-0.1c2.8,0,5.6,0,10.4,0
		c-3.2-3.6-5.1-5.9-7.2-8.1C218,91,201.1,74,184.3,57c-2-2.1-4.1-4.1-5.9-6.4c-9.1-11.1-8.9-26.1,0.6-35c9.5-9,24.7-8.8,35,1
		c9,8.5,17.5,17.5,26.1,26.3c25,25.6,50,51.2,74.9,76.8c17.2,17.6,17.1,26-0.4,43.7c-32.3,32.8-64.6,65.5-96.9,98.4
		c-6.5,6.6-13.6,12-23.2,11.5c-8.8-0.5-16.4-3.9-20.3-12.7c-3.9-8.8-3.8-17.4,1.8-25.5c1.9-2.8,4.4-5.3,6.7-7.7
		c16.8-17,33.7-34,50.5-51C235.8,174,238.2,171.2,242.3,166.7z"/>
</g>
</svg>
