<?xml version="1.0" encoding="utf-8"?>
<!-- Generator: Adobe Illustrator 25.4.1, SVG Export Plug-In . SVG Version: 6.00 Build 0)  -->
<svg version="1.1" xmlns="http://www.w3.org/2000/svg" xmlns:xlink="http://www.w3.org/1999/xlink" x="0px" y="0px"
	 viewBox="0 0 600 600" style="enable-background:new 0 0 600 600;" xml:space="preserve">
<style type="text/css">
	.st0{fill:#FF3E00;}
	.st1{fill:#939597;}
	.st2{fill:none;stroke:#939597;stroke-width:0.861;stroke-miterlimit:10;}
	.st3{fill:none;stroke:#FF3E00;stroke-width:0.861;stroke-miterlimit:10;}
	.st4{fill:none;stroke:#939597;stroke-width:0.8036;stroke-miterlimit:10;}
</style>
<g id="Layer_1">
</g>
<g id="Isolation_Mode">
	<ellipse class="st0" cx="21.3" cy="101.1" rx="1.9" ry="1.9"/>
	<ellipse class="st1" cx="97.7" cy="10.5" rx="1.9" ry="1.9"/>
	<ellipse class="st1" cx="25.6" cy="26.4" rx="1.9" ry="1.9"/>
	<ellipse class="st1" cx="25.2" cy="34.6" rx="1.9" ry="1.9"/>
	<ellipse class="st1" cx="-10.6" cy="86.7" rx="1.9" ry="1.9"/>
	<ellipse class="st1" cx="-28.1" cy="55.3" rx="1.9" ry="1.9"/>
	<ellipse class="st1" cx="35.6" cy="42.9" rx="1.9" ry="1.9"/>
	<ellipse class="st1" cx="32.6" cy="86" rx="1.9" ry="1.9"/>
	<ellipse class="st1" cx="17.7" cy="55.9" rx="1.9" ry="1.9"/>
	<ellipse class="st0" cx="-9.5" cy="19" rx="1.9" ry="1.9"/>
	<ellipse class="st1" cx="377.9" cy="-12.9" rx="1.9" ry="1.9"/>
	<ellipse class="st1" cx="325.4" cy="15.4" rx="1.9" ry="1.9"/>
	<ellipse class="st1" cx="202.7" cy="12.4" rx="1.9" ry="1.9"/>
	<ellipse class="st1" cx="279.6" cy="-5" rx="1.9" ry="1.9"/>
	<ellipse class="st1" cx="295.7" cy="-19.5" rx="1.9" ry="1.9"/>
	<ellipse transform="matrix(0.8127 -0.5827 0.5827 0.8127 54.5857 198.4569)" class="st1" cx="336" cy="14.3" rx="1.9" ry="1.9"/>
	<ellipse class="st1" cx="374.9" cy="10.5" rx="1.9" ry="1.9"/>
	<ellipse class="st1" cx="-7.5" cy="201.1" rx="1.9" ry="1.9"/>
	<ellipse class="st0" cx="-13" cy="171.2" rx="1.9" ry="1.9"/>
	<ellipse class="st1" cx="-4.6" cy="132.6" rx="1.9" ry="1.9"/>
	<ellipse class="st1" cx="38.3" cy="132.6" rx="1.9" ry="1.9"/>
	<ellipse class="st1" cx="-8.2" cy="140.8" rx="1.9" ry="1.9"/>
	<ellipse class="st1" cx="273.6" cy="67.1" rx="1.9" ry="1.9"/>
	<ellipse class="st1" cx="220.3" cy="96.9" rx="1.9" ry="1.9"/>
	<ellipse class="st0" cx="152.6" cy="67.7" rx="1.9" ry="1.9"/>
	<ellipse class="st0" cx="96.1" cy="96.6" rx="1.9" ry="1.9"/>
	<ellipse class="st1" cx="229.4" cy="125.3" rx="1.9" ry="1.9"/>
	<ellipse class="st1" cx="229" cy="133.9" rx="1.9" ry="1.9"/>
	<ellipse class="st1" cx="193.5" cy="186.1" rx="1.9" ry="1.9"/>
	<ellipse class="st1" cx="176.6" cy="154.6" rx="1.9" ry="1.9"/>
	<polyline class="st2" points="179.7,107.2 165.1,136.6 123.2,136.6 	"/>
	<ellipse class="st1" cx="179.8" cy="106.7" rx="1.9" ry="1.9"/>
	<ellipse class="st1" cx="122.7" cy="136.6" rx="1.9" ry="1.9"/>
	<polyline class="st3" points="573.5,11.2 558.8,40.6 516.9,40.6 	"/>
	<ellipse class="st0" cx="573.5" cy="11.2" rx="1.9" ry="1.9"/>
	<ellipse class="st0" cx="517" cy="40.6" rx="1.9" ry="1.9"/>
	<ellipse class="st1" cx="175.8" cy="135.4" rx="1.9" ry="1.9"/>
	<polyline class="st2" points="89.7,39.5 75.1,68.9 46.9,68.9 	"/>
	<ellipse class="st1" cx="89.8" cy="39" rx="1.9" ry="1.9"/>
	<ellipse class="st1" cx="46.9" cy="68.9" rx="1.9" ry="1.9"/>
	<ellipse class="st1" cx="85.8" cy="67.7" rx="1.9" ry="1.9"/>
	<ellipse class="st1" cx="175.2" cy="75.1" rx="1.9" ry="1.9"/>
	<ellipse class="st1" cx="104.6" cy="58.8" rx="1.9" ry="1.9"/>
	<ellipse class="st1" cx="147.6" cy="58.8" rx="1.9" ry="1.9"/>
	<ellipse class="st1" cx="46.9" cy="291.2" rx="1.9" ry="1.9"/>
	<ellipse class="st1" cx="101.1" cy="66.9" rx="1.9" ry="1.9"/>
	<ellipse class="st1" cx="101.7" cy="127.2" rx="1.9" ry="1.9"/>
	
		<ellipse transform="matrix(0.9992 -3.895171e-02 3.895171e-02 0.9992 -3.6406 9.4372)" class="st1" cx="240.4" cy="98.1" rx="1.9" ry="1.9"/>
	<ellipse class="st1" cx="190.9" cy="61" rx="1.9" ry="1.9"/>
	<ellipse class="st1" cx="247.4" cy="186.2" rx="1.9" ry="1.9"/>
	<ellipse class="st0" cx="69.6" cy="140" rx="1.9" ry="1.9"/>
	<ellipse class="st0" cx="128.9" cy="26.9" rx="1.9" ry="1.9"/>
	<ellipse class="st0" cx="177.2" cy="65.7" rx="1.9" ry="1.9"/>
	<ellipse class="st1" cx="239.7" cy="142.6" rx="1.9" ry="1.9"/>
	<ellipse class="st1" cx="230.3" cy="96.9" rx="1.9" ry="1.9"/>
	<ellipse class="st1" cx="291.7" cy="112.4" rx="1.9" ry="1.9"/>
	<ellipse class="st1" cx="112.4" cy="40.5" rx="1.9" ry="1.9"/>
	<polyline class="st2" points="166.7,112.7 159,128.1 120.6,128.1 105.9,98.7 117.7,75.1 	"/>
	<ellipse class="st1" cx="167.1" cy="112.6" rx="1.9" ry="1.9"/>
	<ellipse class="st1" cx="118.1" cy="74.4" rx="1.9" ry="1.9"/>
	<polyline class="st2" points="109.4,257.2 101.7,272.6 63.3,272.6 48.6,243.2 60.4,219.6 	"/>
	<ellipse class="st1" cx="109.8" cy="257" rx="1.9" ry="1.9"/>
	<ellipse class="st1" cx="60.8" cy="218.9" rx="1.9" ry="1.9"/>
	<polyline class="st2" points="490.3,28.8 482.6,44.2 444.2,44.2 429.5,14.8 441.3,-8.8 	"/>
	<ellipse class="st1" cx="490.3" cy="28.7" rx="1.9" ry="1.9"/>
	<ellipse class="st1" cx="441.3" cy="-8.8" rx="1.9" ry="1.9"/>
	<ellipse class="st1" cx="160.5" cy="93.4" rx="1.9" ry="1.9"/>
	<ellipse class="st1" cx="108.7" cy="50.1" rx="1.9" ry="1.9"/>
	<ellipse class="st0" cx="243.7" cy="155.8" rx="1.9" ry="1.9"/>
	<ellipse class="st0" cx="194.7" cy="118.4" rx="1.9" ry="1.9"/>
	<ellipse class="st1" cx="84.6" cy="80.2" rx="1.9" ry="1.9"/>
	<ellipse class="st1" cx="333.8" cy="45.3" rx="1.9" ry="1.9"/>
	<ellipse class="st1" cx="339.4" cy="53.9" rx="1.9" ry="1.9"/>
	<ellipse class="st1" cx="297.9" cy="106" rx="1.9" ry="1.9"/>
	<ellipse class="st1" cx="280.9" cy="74.6" rx="1.9" ry="1.9"/>
	<polyline class="st3" points="284.1,27.2 269.5,56.6 227.5,56.6 	"/>
	<ellipse class="st0" cx="284.2" cy="26.7" rx="1.9" ry="1.9"/>
	<ellipse class="st0" cx="227.1" cy="56.6" rx="1.9" ry="1.9"/>
	<ellipse class="st1" cx="280.2" cy="55.3" rx="1.9" ry="1.9"/>
	<ellipse class="st1" cx="205.6" cy="45.5" rx="1.9" ry="1.9"/>
	<ellipse class="st1" cx="344.8" cy="18.1" rx="1.9" ry="1.9"/>
	<ellipse class="st0" cx="393.1" cy="100.3" rx="1.9" ry="1.9"/>
	<ellipse class="st0" cx="344.1" cy="62.6" rx="1.9" ry="1.9"/>
	<ellipse class="st1" cx="395.4" cy="30.9" rx="1.9" ry="1.9"/>
	<ellipse class="st1" cx="389.6" cy="39.9" rx="1.9" ry="1.9"/>
	<ellipse class="st1" cx="341.3" cy="104.6" rx="1.9" ry="1.9"/>
	<ellipse class="st1" cx="327.7" cy="143.9" rx="1.9" ry="1.9"/>
	<ellipse class="st1" cx="380.7" cy="114.6" rx="1.9" ry="1.9"/>
	<ellipse class="st1" cx="326.4" cy="75.2" rx="1.9" ry="1.9"/>
	<polyline class="st2" points="269.4,35.8 263.4,48 225,48 210.3,18.6 222.1,-5 	"/>
	<ellipse transform="matrix(0.8164 -0.5775 0.5775 0.8164 28.5061 162.051)" class="st1" cx="269.1" cy="36.2" rx="1.9" ry="1.9"/>
	<ellipse class="st1" cx="222.5" cy="-5.6" rx="1.9" ry="1.9"/>
	<ellipse class="st1" cx="348.2" cy="78.5" rx="1.9" ry="1.9"/>
	<ellipse class="st1" cx="300.3" cy="39.1" rx="1.9" ry="1.9"/>
	<ellipse class="st1" cx="164.5" cy="146" rx="1.9" ry="1.9"/>
	<ellipse class="st1" cx="111" cy="170.8" rx="1.9" ry="1.9"/>
	<ellipse class="st1" cx="120.5" cy="199.6" rx="1.9" ry="1.9"/>
	<ellipse class="st1" cx="127.3" cy="208.1" rx="1.9" ry="1.9"/>
	<ellipse class="st1" cx="66.3" cy="209.6" rx="1.9" ry="1.9"/>
	<ellipse class="st1" cx="66.8" cy="228.5" rx="1.9" ry="1.9"/>
	<polyline class="st3" points="70.4,181.1 55.8,210.5 13.9,210.5 	"/>
	<ellipse class="st0" cx="70.5" cy="180.6" rx="1.9" ry="1.9"/>
	<ellipse class="st0" cx="13.4" cy="210.5" rx="1.9" ry="1.9"/>
	<ellipse class="st1" cx="65.9" cy="148.9" rx="1.9" ry="1.9"/>
	<ellipse class="st1" cx="131.1" cy="171.2" rx="1.9" ry="1.9"/>
	<ellipse class="st1" cx="82.7" cy="134" rx="1.9" ry="1.9"/>
	<ellipse class="st0" cx="137.5" cy="258.4" rx="1.9" ry="1.9"/>
	<ellipse class="st0" cx="131" cy="216.1" rx="1.9" ry="1.9"/>
	<ellipse class="st1" cx="120.6" cy="171" rx="1.9" ry="1.9"/>
	<ellipse class="st1" cx="184.5" cy="190.4" rx="1.9" ry="1.9"/>
	<ellipse class="st1" cx="502.7" cy="77.8" rx="1.9" ry="1.9"/>
	<polyline class="st2" points="503,26.3 488.4,55.7 446.5,55.7 	"/>
	<ellipse class="st1" cx="503.1" cy="25.8" rx="1.9" ry="1.9"/>
	<ellipse class="st1" cx="446" cy="55.7" rx="1.9" ry="1.9"/>
	<ellipse class="st1" cx="499.2" cy="54.4" rx="1.9" ry="1.9"/>
	<ellipse class="st0" cx="487.8" cy="65.1" rx="1.9" ry="1.9"/>
	<ellipse transform="matrix(0.6489 -0.7609 0.7609 0.6489 84.4143 361.9565)" class="st0" cx="434.4" cy="89.5" rx="1.9" ry="1.9"/>
	<ellipse class="st1" cx="454.4" cy="90.9" rx="1.9" ry="1.9"/>
	<ellipse class="st1" cx="405.4" cy="53.5" rx="1.9" ry="1.9"/>
	<ellipse class="st1" cx="400.4" cy="107.3" rx="1.9" ry="1.9"/>
	<ellipse class="st1" cx="389.7" cy="69.3" rx="1.9" ry="1.9"/>
	<ellipse class="st1" cx="507.8" cy="109.5" rx="1.9" ry="1.9"/>
	<ellipse class="st1" cx="555.8" cy="48.3" rx="1.9" ry="1.9"/>
	<ellipse class="st1" cx="425.8" cy="44.1" rx="1.9" ry="1.9"/>
	<ellipse class="st1" cx="444.3" cy="89.8" rx="1.9" ry="1.9"/>
	<ellipse class="st1" cx="113.4" cy="231.5" rx="1.9" ry="1.9"/>
	<ellipse class="st1" cx="127.4" cy="259.4" rx="1.9" ry="1.9"/>
	<ellipse class="st1" cx="84.2" cy="259.4" rx="1.9" ry="1.9"/>
	<polyline class="st2" points="57.4,186.6 49.8,201.9 11.3,201.9 -3.3,172.5 8.4,148.9 	"/>
	<ellipse class="st1" cx="57.8" cy="186.4" rx="1.9" ry="1.9"/>
	<ellipse class="st1" cx="8.8" cy="148.3" rx="1.9" ry="1.9"/>
	<ellipse class="st1" cx="134.4" cy="229.7" rx="1.9" ry="1.9"/>
	<ellipse class="st1" cx="85.4" cy="192.3" rx="1.9" ry="1.9"/>
	<ellipse class="st0" cx="43.3" cy="141.5" rx="1.9" ry="1.9"/>
	<ellipse class="st1" cx="51.2" cy="167.3" rx="1.9" ry="1.9"/>
	<ellipse class="st1" cx="-0.6" cy="124" rx="1.9" ry="1.9"/>
	<ellipse class="st1" cx="257.1" cy="-12.5" rx="1.9" ry="1.9"/>
	<ellipse class="st1" cx="209.1" cy="-21.4" rx="1.9" ry="1.9"/>
	<ellipse class="st1" cx="252" cy="-21.4" rx="1.9" ry="1.9"/>
	<ellipse class="st1" cx="205.6" cy="-13.3" rx="1.9" ry="1.9"/>
	<ellipse class="st0" cx="265" cy="13.3" rx="1.9" ry="1.9"/>
	<ellipse class="st0" cx="213.1" cy="-30.1" rx="1.9" ry="1.9"/>
	<polyline class="st2" points="-27.7,55.3 -13,26 25.4,26 	"/>
	<polyline class="st2" points="-10.5,86.8 -21.9,64 -7.3,34.6 24.8,34.6 	"/>
	<line class="st2" x1="17.9" y1="55.9" x2="32.5" y2="85.3"/>
	<polyline class="st2" points="325.4,15.4 339.3,-12.8 377.8,-12.8 	"/>
	<polyline class="st4" points="-8.1,199.5 -22.8,170.1 -8.2,140.8 	"/>
	<line class="st2" x1="-3.4" y1="132.6" x2="38.7" y2="132.6"/>
	<polyline class="st3" points="213.6,-30.2 257.2,-30.2 271.9,-0.8 264.9,13.2 	"/>
	<polyline class="st2" points="230.3,96.9 237.9,81.6 276.4,81.6 291.7,112.3 	"/>
	<polyline class="st2" points="109.2,50 152.8,50 167.5,79.4 160.5,93.4 	"/>
	<polyline class="st3" points="194.6,118.2 197.5,112.4 235.9,112.4 250.6,141.8 243.6,155.8 	"/>
	<polyline class="st2" points="-2,253.4 0.8,247.6 39.3,247.6 53.9,277 47,291 	"/>
	<polyline class="st2" points="240.4,98.2 237.5,104 199.1,104 184.4,74.6 191.4,60.6 	"/>
	<polyline class="st2" points="247.4,186 232.8,156.6 239.7,142.6 	"/>
	<polyline class="st3" points="21.3,101 24.2,95.2 62.6,95.2 77.3,124.6 70.3,138.6 	"/>
	<polyline class="st3" points="128.9,26.7 131.8,20.9 170.2,20.9 184.9,50.3 177.9,64.3 	"/>
	<polyline class="st4" points="175.8,76.6 190.4,106 175.8,135.4 	"/>
	<polyline class="st4" points="85.8,8.9 100.5,38.3 85.8,67.7 	"/>
	<polyline class="st4" points="101.2,125.7 86.5,96.3 101.1,66.9 	"/>
	<polyline class="st4" points="425.8,44.1 411.8,17 426.4,-12.4 	"/>
	<polyline class="st2" points="220.3,96.6 235,67.2 273.4,67.2 	"/>
	<polyline class="st2" points="327.7,143.9 342.3,114.6 380.7,114.6 	"/>
	<polyline class="st3" points="96.6,96.7 111.2,67.3 153.2,67.3 	"/>
	<polyline class="st2" points="176.5,154.7 191.1,125.3 229.6,125.3 	"/>
	<polyline class="st2" points="193.7,186.2 182.3,163.4 196.9,134 229,134 	"/>
	<line class="st2" x1="97.7" y1="10.4" x2="112.4" y2="39.8"/>
	<polyline class="st2" points="84.6,80.9 81.7,86.7 43.3,86.7 28.6,57.3 35.6,43.3 	"/>
	<line class="st2" x1="105.9" y1="58.8" x2="148" y2="58.8"/>
	<polyline class="st2" points="336,14.1 342.3,1.5 380.8,1.5 395.4,30.9 	"/>
	<polyline class="st2" points="300.3,39.1 302,35.1 340.4,35.1 355.1,64.5 348.1,78.5 	"/>
	<polyline class="st2" points="344.8,18.2 341.9,23.9 303.5,23.9 288.8,-5.5 295.8,-19.5 	"/>
	<polyline class="st3" points="393.1,100.2 390.3,106 351.8,106 337.2,76.6 344.1,62.6 	"/>
	<polyline class="st4" points="280.1,-3.4 294.8,26 280.2,55.3 	"/>
	<polyline class="st2" points="280.9,74.7 295.5,45.3 334,45.3 	"/>
	<polyline class="st2" points="298.1,106.1 286.7,83.3 301.3,53.9 339.4,53.9 	"/>
	<line class="st2" x1="374.9" y1="10.5" x2="389.6" y2="39.9"/>
	<line class="st2" x1="326.4" y1="75.2" x2="341.1" y2="104.6"/>
	<polyline class="st2" points="121,170.8 128.6,155.4 167.1,155.4 184.5,190.4 	"/>
	<polyline class="st2" points="85.4,192.1 88.2,186.3 126.7,186.3 141.3,215.7 134.4,229.7 	"/>
	<polyline class="st2" points="131.1,172.1 128.2,177.8 89.8,177.8 75.1,148.5 82.1,134.4 	"/>
	<polyline class="st3" points="138.2,259.9 123.5,230.5 130.5,216.5 	"/>
	<polyline class="st4" points="66.5,150.5 81.2,179.9 66.5,209.2 	"/>
	<polyline class="st2" points="111.1,170.5 123.1,146 164.5,146 	"/>
	<polyline class="st2" points="67.3,228.6 81.9,199.2 120.3,199.2 	"/>
	<polyline class="st2" points="84.4,260.6 73,237.8 87.6,208.4 126.2,208.4 	"/>
	<polyline class="st4" points="499.1,-4.3 513.8,25 499.2,54.4 	"/>
	<polyline class="st2" points="502.7,77.8 517.4,48.4 555.8,48.4 	"/>
	<polyline class="st2" points="444.3,89.9 452,74.5 490.4,74.5 507.8,109.4 	"/>
	<polyline class="st2" points="454.4,91.1 451.6,96.9 413.1,96.9 398.5,67.5 405.4,53.5 	"/>
	<polyline class="st4" points="389.8,69.5 404.5,98.9 400.3,107.3 	"/>
	<polyline class="st3" points="434.4,89.5 446.4,65 487.8,65 	"/>
	<line class="st2" x1="112.8" y1="230.3" x2="127.5" y2="259.6"/>
	<polyline class="st2" points="-0.1,123.9 43.5,123.9 58.2,153.3 51.2,167.3 	"/>
	<polyline class="st3" points="-12.7,170.5 1.9,141.2 43.9,141.2 	"/>
	<polyline class="st4" points="205.6,45.5 190.9,16.1 205.6,-13.3 	"/>
	<polyline class="st2" points="202.5,13.4 215.6,-12.9 257.7,-12.9 	"/>
	<line class="st2" x1="210.4" y1="-21.4" x2="252.4" y2="-21.4"/>
</g>
</svg>
