<?xml version="1.0" encoding="utf-8"?>
<!-- Generator: Adobe Illustrator 25.4.1, SVG Export Plug-In . SVG Version: 6.00 Build 0)  -->
<svg version="1.1" id="Layer_1" xmlns="http://www.w3.org/2000/svg" xmlns:xlink="http://www.w3.org/1999/xlink" x="0px" y="0px"
	 viewBox="0 0 2386.7 2069.1" style="enable-background:new 0 0 2386.7 2069.1;" xml:space="preserve">
<style type="text/css">
	.st0{opacity:5.000000e-02;fill:#EA9A00;enable-background:new    ;}
	.st1{opacity:3.000000e-02;fill:#EA9A00;enable-background:new    ;}
	.st2{opacity:7.000000e-02;fill:#EA9A00;enable-background:new    ;}
	.st3{opacity:0.1;fill:#DF591D;enable-background:new    ;}
	.st4{opacity:0.2;fill:#DF591D;enable-background:new    ;}
	.st5{fill:#DF591D;}
</style>
<path class="st0" d="M919.8,6.4L165.7,759.2l273.5,1028.1l1027.6,275.4l754.1-752.8L1947.5,281.8L919.8,6.4z"/>
<path class="st1" d="M598.5,0L0,1034.6l594.8,1034.5h1193.4l598.5-1034.5L1791.9,0L598.5,0z"/>
<path class="st2" d="M1195.1,79.4L366.2,557l-1.7,955.1l827.2,477.6l828.9-477.6l1.7-955.1L1195.1,79.4z"/>
<path class="st3" d="M1415.7,210.8L590,431.2L367.7,1255l603.3,603.3l825.6-220.4L2019,814.1L1415.7,210.8z"/>
<path class="st4" d="M1578.3,378.1l-760-0.7l-380.6,656.4L817.2,1691l760,0.7l380.6-656.4L1578.3,378.1z"/>
<path class="st5" d="M1679.4,554.6l-657.7-176.9L540,857.7l176,656.9l657.7,176.9l481.7-480L1679.4,554.6z"/>
</svg>
