<?xml version="1.0" encoding="utf-8"?>
<!-- Generator: Adobe Illustrator 25.4.1, SVG Export Plug-In . SVG Version: 6.00 Build 0)  -->
<svg version="1.1" id="Layer_1" xmlns="http://www.w3.org/2000/svg" xmlns:xlink="http://www.w3.org/1999/xlink" x="0px" y="0px"
	 viewBox="0 0 492.2 1128.5" style="enable-background:new 0 0 492.2 1128.5;" xml:space="preserve">
<style type="text/css">
	.st0{opacity:5.000000e-02;fill:#008436;enable-background:new    ;}
	.st1{opacity:7.000000e-02;fill:#008436;enable-background:new    ;}
	.st2{opacity:0.1;fill:#008436;enable-background:new    ;}
	.st3{opacity:0.1;fill:#007D8A;enable-background:new    ;}
</style>
<path class="st0" d="M326,0L0,563.5l323.9,563.4h649.9l326-563.4L975.9,0H326z"/>
<path class="st1" d="M500.3,1.1L87.8,412.8l149.6,562.3l562,150.6L1211.9,714l-149.5-562.3L500.3,1.1z"/>
<path class="st2" d="M650.9,41L197.5,302.2l-0.9,522.4L649,1085.9l453.4-261.2l0.9-522.4L650.9,41z"/>
<path class="st3" d="M772,111.1l-453.4,121L196.6,684.5l331.3,331.3l453.3-121l122.1-452.3L772,111.1z"/>
<path class="st3" d="M864.2,198l-423.1-0.4L229.2,563l211.3,365.8l423.1,0.4l211.9-365.4L864.2,198z"/>
<path class="st3" d="M920.5,296.3l-366.1-98.5L286.2,465l98,365.7l366.1,98.5l268.1-267.2L920.5,296.3z"/>
</svg>
