<?xml version="1.0" encoding="utf-8"?>
<!-- Generator: Adobe Illustrator 25.4.1, SVG Export Plug-In . SVG Version: 6.00 Build 0)  -->
<svg version="1.1" id="Layer_1" xmlns="http://www.w3.org/2000/svg" xmlns:xlink="http://www.w3.org/1999/xlink" x="0px" y="0px"
	 viewBox="0 0 605.4 305" style="enable-background:new 0 0 605.4 305;" xml:space="preserve">
<style type="text/css">
	.st0{fill:#FFFFFF;}
	.st1{fill:none;stroke:#FFFFFF;stroke-width:0.861;stroke-miterlimit:10;}
	.st2{fill:none;stroke:#FFFFFF;stroke-width:0.8036;stroke-miterlimit:10;}
</style>
<ellipse class="st0" cx="50.8" cy="171.8" rx="1.9" ry="1.9"/>
<ellipse class="st0" cx="128.3" cy="261.2" rx="1.9" ry="1.9"/>
<ellipse class="st0" cx="55.6" cy="246.6" rx="1.9" ry="1.9"/>
<ellipse class="st0" cx="55.2" cy="238.4" rx="1.9" ry="1.9"/>
<ellipse class="st0" cx="19.4" cy="186.3" rx="1.9" ry="1.9"/>
<ellipse class="st0" cx="1.9" cy="217.7" rx="1.9" ry="1.9"/>
<ellipse class="st0" cx="65.6" cy="230.1" rx="1.9" ry="1.9"/>
<ellipse class="st0" cx="62.6" cy="187" rx="1.9" ry="1.9"/>
<ellipse class="st0" cx="48.5" cy="215.8" rx="1.9" ry="1.9"/>
<ellipse class="st0" cx="407.9" cy="285.9" rx="1.9" ry="1.9"/>
<ellipse class="st0" cx="355.4" cy="257.8" rx="1.9" ry="1.9"/>
<ellipse class="st0" cx="232.7" cy="260.6" rx="1.9" ry="1.9"/>
<ellipse class="st0" cx="309.6" cy="278" rx="1.9" ry="1.9"/>
<ellipse class="st0" cx="326.3" cy="292.9" rx="1.9" ry="1.9"/>
<ellipse class="st0" cx="366" cy="260.5" rx="1.9" ry="1.9"/>
<ellipse class="st0" cx="404.4" cy="263.4" rx="1.9" ry="1.9"/>
<ellipse class="st0" cx="22.5" cy="71.9" rx="1.9" ry="1.9"/>
<ellipse class="st0" cx="17" cy="101.8" rx="1.9" ry="1.9"/>
<ellipse class="st0" cx="25.4" cy="140.4" rx="1.9" ry="1.9"/>
<ellipse class="st0" cx="68.3" cy="140.4" rx="1.9" ry="1.9"/>
<ellipse class="st0" cx="21.8" cy="132.2" rx="1.9" ry="1.9"/>
<ellipse class="st0" cx="303.6" cy="205.9" rx="1.9" ry="1.9"/>
<ellipse class="st0" cx="250.3" cy="176.1" rx="1.9" ry="1.9"/>
<ellipse class="st0" cx="182.6" cy="205.3" rx="1.9" ry="1.9"/>
<ellipse class="st0" cx="126.1" cy="176.4" rx="1.9" ry="1.9"/>
<ellipse class="st0" cx="259.8" cy="147.3" rx="1.9" ry="1.9"/>
<ellipse class="st0" cx="259.4" cy="139" rx="1.9" ry="1.9"/>
<ellipse class="st0" cx="223.5" cy="86.9" rx="1.9" ry="1.9"/>
<ellipse class="st0" cx="206.1" cy="118.4" rx="1.9" ry="1.9"/>
<g>
	<polyline class="st1" points="209.7,165.8 195.1,136.4 153.2,136.4 	"/>
	<ellipse class="st0" cx="209.8" cy="166.2" rx="1.9" ry="1.9"/>
	<ellipse class="st0" cx="152.7" cy="136.4" rx="1.9" ry="1.9"/>
</g>
<g>
	<polyline class="st1" points="603.5,261.8 588.8,232.4 546.9,232.4 	"/>
	<ellipse class="st0" cx="603.6" cy="262.3" rx="1.9" ry="1.9"/>
	<ellipse class="st0" cx="546.4" cy="232.4" rx="1.9" ry="1.9"/>
</g>
<ellipse class="st0" cx="205.8" cy="137.6" rx="1.9" ry="1.9"/>
<g>
	<polyline class="st1" points="119.7,233.5 105.1,204.1 76.9,204.1 	"/>
	<ellipse class="st0" cx="119.8" cy="234" rx="1.9" ry="1.9"/>
	<ellipse class="st0" cx="76.9" cy="204.1" rx="1.9" ry="1.9"/>
</g>
<ellipse class="st0" cx="115.8" cy="205.3" rx="1.9" ry="1.9"/>
<ellipse class="st0" cx="205.2" cy="197.9" rx="1.9" ry="1.9"/>
<ellipse class="st0" cx="134.6" cy="214.2" rx="1.9" ry="1.9"/>
<ellipse class="st0" cx="177.6" cy="214.2" rx="1.9" ry="1.9"/>
<ellipse class="st0" cx="131.1" cy="206.1" rx="1.9" ry="1.9"/>
<ellipse class="st0" cx="131.7" cy="145.8" rx="1.9" ry="1.9"/>
<ellipse class="st0" cx="270.4" cy="175.6" rx="1.9" ry="1.9"/>
<ellipse class="st0" cx="221.9" cy="212.8" rx="1.9" ry="1.9"/>
<ellipse class="st0" cx="278.2" cy="86.2" rx="1.9" ry="1.9"/>
<ellipse class="st0" cx="99.6" cy="133" rx="1.9" ry="1.9"/>
<ellipse class="st0" cx="158.4" cy="246.1" rx="1.9" ry="1.9"/>
<ellipse class="st0" cx="115.8" cy="264.1" rx="1.9" ry="1.9"/>
<ellipse class="st0" cx="207.2" cy="207.3" rx="1.9" ry="1.9"/>
<ellipse class="st0" cx="269.7" cy="130.8" rx="1.9" ry="1.9"/>
<ellipse class="st0" cx="259.8" cy="175.9" rx="1.9" ry="1.9"/>
<ellipse class="st0" cx="322.1" cy="160.2" rx="1.9" ry="1.9"/>
<ellipse class="st0" cx="142.4" cy="232.5" rx="1.9" ry="1.9"/>
<g>
	<polyline class="st1" points="196.7,160.3 189,144.9 150.6,144.9 135.9,174.3 147.7,197.9 	"/>
	<ellipse class="st0" cx="197.1" cy="160.4" rx="1.9" ry="1.9"/>
	<ellipse class="st0" cx="148.1" cy="198.5" rx="1.9" ry="1.9"/>
</g>
<g>
	<polyline class="st1" points="139.4,15.8 131.7,0.4 93.3,0.4 78.6,29.8 90.4,53.4 	"/>
	<ellipse class="st0" cx="139.8" cy="15.9" rx="1.9" ry="1.9"/>
	<ellipse class="st0" cx="90.8" cy="54.1" rx="1.9" ry="1.9"/>
</g>
<g>
	<polyline class="st1" points="520.3,244.2 512.6,228.8 474.2,228.8 459.5,258.2 471.3,281.8 	"/>
	<ellipse class="st0" cx="520.7" cy="244.3" rx="1.9" ry="1.9"/>
	<ellipse class="st0" cx="471.7" cy="282.4" rx="1.9" ry="1.9"/>
</g>
<ellipse class="st0" cx="190.5" cy="179.6" rx="1.9" ry="1.9"/>
<ellipse class="st0" cx="138.7" cy="222.9" rx="1.9" ry="1.9"/>
<ellipse class="st0" cx="273.7" cy="117.2" rx="1.9" ry="1.9"/>
<ellipse class="st0" cx="224.7" cy="154.6" rx="1.9" ry="1.9"/>
<ellipse class="st0" cx="114.6" cy="192.8" rx="1.9" ry="1.9"/>
<ellipse class="st0" cx="364.1" cy="227.3" rx="1.9" ry="1.9"/>
<ellipse class="st0" cx="370.3" cy="219.1" rx="1.9" ry="1.9"/>
<ellipse class="st0" cx="327.9" cy="167" rx="1.9" ry="1.9"/>
<ellipse class="st0" cx="310.5" cy="198.4" rx="1.9" ry="1.9"/>
<g>
	<polyline class="st1" points="314.1,245.8 299.5,216.4 257.5,216.4 	"/>
	<ellipse class="st0" cx="314.2" cy="246.3" rx="1.9" ry="1.9"/>
	<ellipse class="st0" cx="257.1" cy="216.4" rx="1.9" ry="1.9"/>
</g>
<ellipse class="st0" cx="310.2" cy="217.7" rx="1.9" ry="1.9"/>
<ellipse class="st0" cx="236.1" cy="225.8" rx="1.9" ry="1.9"/>
<ellipse class="st0" cx="374.8" cy="255.7" rx="1.9" ry="1.9"/>
<ellipse class="st0" cx="423.1" cy="173.5" rx="1.9" ry="1.9"/>
<ellipse class="st0" cx="374.1" cy="210.8" rx="1.9" ry="1.9"/>
<ellipse class="st0" cx="425.5" cy="241.2" rx="1.9" ry="1.9"/>
<ellipse class="st0" cx="419.7" cy="232.4" rx="1.9" ry="1.9"/>
<ellipse class="st0" cx="371.1" cy="167.7" rx="1.9" ry="1.9"/>
<ellipse class="st0" cx="357.3" cy="129.8" rx="1.9" ry="1.9"/>
<ellipse class="st0" cx="410.7" cy="158.4" rx="1.9" ry="1.9"/>
<ellipse class="st0" cx="456.5" cy="285.8" rx="1.9" ry="1.9"/>
<ellipse class="st0" cx="529.2" cy="277.3" rx="1.9" ry="1.9"/>
<ellipse class="st0" cx="357" cy="196.5" rx="1.9" ry="1.9"/>
<g>
	<polyline class="st1" points="299.4,237.1 293.4,225 255,225 240.3,254.4 252.1,278 	"/>
	<ellipse class="st0" cx="299.1" cy="236.8" rx="1.9" ry="1.9"/>
	<ellipse class="st0" cx="252.5" cy="278.6" rx="1.9" ry="1.9"/>
</g>
<ellipse class="st0" cx="378.2" cy="194.5" rx="1.9" ry="1.9"/>
<ellipse class="st0" cx="330.3" cy="233.9" rx="1.9" ry="1.9"/>
<ellipse class="st0" cx="195.3" cy="127.2" rx="1.9" ry="1.9"/>
<ellipse class="st0" cx="141" cy="102.2" rx="1.9" ry="1.9"/>
<ellipse class="st0" cx="150.5" cy="73.4" rx="1.9" ry="1.9"/>
<ellipse class="st0" cx="157.3" cy="64.9" rx="1.9" ry="1.9"/>
<ellipse class="st0" cx="96.3" cy="63.3" rx="1.9" ry="1.9"/>
<ellipse class="st0" cx="96.8" cy="44.5" rx="1.9" ry="1.9"/>
<g>
	<polyline class="st1" points="100.4,91.9 85.8,62.5 43.9,62.5 	"/>
	<ellipse class="st0" cx="100.5" cy="92.4" rx="1.9" ry="1.9"/>
	<ellipse class="st0" cx="43.4" cy="62.5" rx="1.9" ry="1.9"/>
</g>
<ellipse class="st0" cx="95.9" cy="124.1" rx="1.9" ry="1.9"/>
<ellipse class="st0" cx="161.1" cy="101.8" rx="1.9" ry="1.9"/>
<ellipse class="st0" cx="112.7" cy="139" rx="1.9" ry="1.9"/>
<ellipse class="st0" cx="167.5" cy="14.6" rx="1.9" ry="1.9"/>
<ellipse class="st0" cx="161" cy="56.9" rx="1.9" ry="1.9"/>
<ellipse class="st0" cx="150.6" cy="102" rx="1.9" ry="1.9"/>
<ellipse class="st0" cx="214.7" cy="81.8" rx="1.9" ry="1.9"/>
<ellipse class="st0" cx="531.9" cy="195.3" rx="1.9" ry="1.9"/>
<g>
	<polyline class="st1" points="533,246.7 518.4,217.3 476.5,217.3 	"/>
	<ellipse class="st0" cx="533.1" cy="247.2" rx="1.9" ry="1.9"/>
	<ellipse class="st0" cx="476" cy="217.3" rx="1.9" ry="1.9"/>
</g>
<ellipse class="st0" cx="529.2" cy="218.6" rx="1.9" ry="1.9"/>
<ellipse class="st0" cx="518.6" cy="208.2" rx="1.9" ry="1.9"/>
<ellipse class="st0" cx="464.4" cy="183.1" rx="1.9" ry="1.9"/>
<ellipse class="st0" cx="484.4" cy="182.7" rx="1.9" ry="1.9"/>
<ellipse class="st0" cx="436" cy="219.9" rx="1.9" ry="1.9"/>
<ellipse class="st0" cx="431.1" cy="167.3" rx="1.9" ry="1.9"/>
<ellipse class="st0" cx="419.7" cy="203.7" rx="1.9" ry="1.9"/>
<ellipse class="st0" cx="537.8" cy="163.5" rx="1.9" ry="1.9"/>
<ellipse class="st0" cx="585.3" cy="224.6" rx="1.9" ry="1.9"/>
<ellipse class="st0" cx="455.8" cy="228.9" rx="1.9" ry="1.9"/>
<ellipse class="st0" cx="473.9" cy="183" rx="1.9" ry="1.9"/>
<ellipse class="st0" cx="143.4" cy="41.4" rx="1.9" ry="1.9"/>
<ellipse class="st0" cx="157.4" cy="13.6" rx="1.9" ry="1.9"/>
<ellipse class="st0" cx="114.2" cy="13.6" rx="1.9" ry="1.9"/>
<g>
	<polyline class="st1" points="87.4,86.4 79.8,71.1 41.3,71.1 26.7,100.4 38.4,124.1 	"/>
	<ellipse class="st0" cx="87.8" cy="86.6" rx="1.9" ry="1.9"/>
	<ellipse class="st0" cx="38.8" cy="124.7" rx="1.9" ry="1.9"/>
</g>
<ellipse class="st0" cx="164.4" cy="43.3" rx="1.9" ry="1.9"/>
<ellipse class="st0" cx="115.4" cy="80.7" rx="1.9" ry="1.9"/>
<ellipse class="st0" cx="73.3" cy="131.4" rx="1.9" ry="1.9"/>
<ellipse class="st0" cx="81.2" cy="105.7" rx="1.9" ry="1.9"/>
<ellipse class="st0" cx="29.4" cy="149" rx="1.9" ry="1.9"/>
<ellipse class="st0" cx="287.1" cy="285.5" rx="1.9" ry="1.9"/>
<ellipse class="st0" cx="239.1" cy="294.4" rx="1.9" ry="1.9"/>
<ellipse class="st0" cx="282" cy="294.4" rx="1.9" ry="1.9"/>
<ellipse class="st0" cx="235.6" cy="286.3" rx="1.9" ry="1.9"/>
<ellipse class="st0" cx="295" cy="259.7" rx="1.9" ry="1.9"/>
<ellipse class="st0" cx="243.1" cy="303.1" rx="1.9" ry="1.9"/>
<polyline class="st1" points="2.3,217.6 17,247 55.4,247 "/>
<polyline class="st1" points="19.5,186.1 8.1,209 22.7,238.4 54.8,238.4 "/>
<line class="st1" x1="47.9" y1="217.1" x2="62.5" y2="187.7"/>
<polyline class="st1" points="355.4,257.6 369.3,285.8 407.8,285.8 "/>
<polyline class="st2" points="21.9,73.5 7.2,102.8 21.8,132.2 "/>
<line class="st1" x1="26.6" y1="140.4" x2="68.7" y2="140.4"/>
<polyline class="st1" points="243.6,303.2 287.2,303.2 301.9,273.8 294.9,259.8 "/>
<polyline class="st1" points="260.3,176 267.9,191.4 306.4,191.4 321.7,160.7 "/>
<polyline class="st1" points="139.2,223 182.8,223 197.5,193.6 190.5,179.6 "/>
<polyline class="st1" points="224.6,154.8 227.5,160.6 265.9,160.6 280.6,131.2 273.6,117.2 "/>
<polyline class="st1" points="270.4,174.8 267.5,169 229.1,169 214.4,198.4 221.4,212.4 "/>
<polyline class="st1" points="277.4,87 262.8,116.3 269.7,130.4 "/>
<polyline class="st1" points="51.3,172 54.2,177.8 92.6,177.8 107.3,148.4 100.3,134.4 "/>
<polyline class="st1" points="158.9,246.3 161.8,252.1 200.2,252.1 214.9,222.7 207.9,208.7 "/>
<polyline class="st2" points="205.8,196.4 220.4,167 205.8,137.6 "/>
<polyline class="st2" points="115.8,264.1 130.5,234.7 115.8,205.3 "/>
<polyline class="st2" points="131.2,147.3 116.5,176.7 131.1,206.1 "/>
<polyline class="st2" points="455.8,228.9 441.8,256 456.4,285.4 "/>
<polyline class="st1" points="250.3,176.4 265,205.8 303.4,205.8 "/>
<polyline class="st1" points="357.7,129 372.3,158.4 410.7,158.4 "/>
<polyline class="st1" points="126.6,176.3 141.2,205.7 183.2,205.7 "/>
<polyline class="st1" points="206.5,118.3 221.1,147.7 259.6,147.7 "/>
<polyline class="st1" points="223.7,86.8 212.3,109.6 226.9,139 259,139 "/>
<line class="st1" x1="127.7" y1="262.5" x2="142.4" y2="233.2"/>
<polyline class="st1" points="114.6,192.1 111.7,186.3 73.3,186.3 58.6,215.7 65.6,229.7 "/>
<line class="st1" x1="135.9" y1="214.2" x2="178" y2="214.2"/>
<polyline class="st1" points="366,258.9 372.3,271.5 410.8,271.5 425.4,242.1 "/>
<polyline class="st1" points="330.3,233.9 332,237.9 370.4,237.9 385.1,208.5 378.1,194.5 "/>
<polyline class="st1" points="374.8,254.8 371.9,249.1 333.5,249.1 318.8,278.4 325.8,292.5 "/>
<polyline class="st1" points="423.1,172.8 420.3,167 381.8,167 367.2,196.4 374.1,210.4 "/>
<polyline class="st2" points="310.1,276.4 324.8,247 310.2,217.7 "/>
<polyline class="st1" points="310.9,198.3 325.5,227.7 364,227.7 "/>
<polyline class="st1" points="328.1,166.8 316.7,189.7 331.3,219.1 369.4,219.1 "/>
<line class="st1" x1="404.9" y1="262.5" x2="419.6" y2="233.1"/>
<line class="st1" x1="356.4" y1="197.8" x2="371.1" y2="168.4"/>
<polyline class="st1" points="151,102.2 158.6,117.5 197.1,117.5 214.5,82.6 "/>
<polyline class="st1" points="115.4,80.9 118.2,86.7 156.7,86.7 171.3,57.3 164.4,43.3 "/>
<polyline class="st1" points="161.1,100.9 158.2,95.2 119.8,95.2 105.1,124.5 112.1,138.6 "/>
<polyline class="st1" points="168.2,13.1 153.5,42.5 160.5,56.5 "/>
<polyline class="st2" points="96.5,122.5 111.2,93.1 96.5,63.7 "/>
<polyline class="st1" points="141.1,102.5 153.1,127 194.5,127 "/>
<polyline class="st1" points="97.3,44.4 111.9,73.8 150.3,73.8 "/>
<polyline class="st1" points="114.4,12.4 103,35.2 117.6,64.6 156.2,64.6 "/>
<polyline class="st2" points="529.1,277.3 543.8,247.9 529.2,218.6 "/>
<polyline class="st1" points="532.7,195.2 547.4,224.6 585.8,224.6 "/>
<polyline class="st1" points="474.3,183.1 482,198.5 520.4,198.5 537.8,163.6 "/>
<polyline class="st1" points="484.4,181.9 481.6,176.1 443.1,176.1 428.5,205.5 435.4,219.5 "/>
<polyline class="st2" points="419.8,203.5 434.5,174.1 430.3,165.7 "/>
<polyline class="st1" points="464.4,183.5 476.4,208 517.8,208 "/>
<line class="st1" x1="142.8" y1="42.7" x2="157.5" y2="13.4"/>
<polyline class="st1" points="29.9,149.1 73.5,149.1 88.2,119.7 81.2,105.7 "/>
<polyline class="st1" points="17.3,102.5 31.9,131.8 73.9,131.8 "/>
<polyline class="st2" points="235.6,227.5 220.9,256.9 235.6,286.3 "/>
<polyline class="st1" points="232.5,259.6 245.6,285.9 287.7,285.9 "/>
<line class="st1" x1="240.4" y1="294.4" x2="282.4" y2="294.4"/>
</svg>
