<?xml version="1.0" encoding="utf-8"?>
<!-- Generator: Adobe Illustrator 25.4.1, SVG Export Plug-In . SVG Version: 6.00 Build 0)  -->
<svg version="1.1" id="Layer_1" xmlns="http://www.w3.org/2000/svg" xmlns:xlink="http://www.w3.org/1999/xlink" x="0px" y="0px"
	 viewBox="0 0 482.3 482.3" style="enable-background:new 0 0 482.3 482.3;" xml:space="preserve">
<style type="text/css">
	.st0{fill:#DF591D;}
	.st1{opacity:0.1;fill:#38484E;}
</style>
<path id="color" class="st0" d="M0,0v482.3h482.3V0H0z M331.2,397.1H151.1L61,241.2l90.1-156h180.1l90.1,156L331.2,397.1z"/>
<path id="gray_00000111908490121248091740000010725054488433944725_" class="st1" d="M417.7,64.6L176.5,0L0,176.5l64.6,241.2
	l241.2,64.6l176.5-176.5L417.7,64.6z M151.1,397.1L61,241.2l90.1-156h180.1l90.1,156l-90.1,156H151.1z"/>
<path id="gray_00000094580349781423465560000009527355647541832093_" class="st1" d="M241.2,17.2l-193.9,112v223.9l193.9,112
	l193.9-112V129.2L241.2,17.2z M331.2,397.1H151.1L61,241.2l90.1-156h180.1l90.1,156L331.2,397.1z"/>
<polygon id="gray_00000150787940392045200030000013432359914562275244_" class="st1" points="189.2,435.1 331,397.1 151.2,397.1 "/>
<polygon id="gray_00000049204938142131084130000001237542664046765204_" class="st1" points="293.1,47.2 151.3,85.2 331.1,85.2 "/>
<polygon id="gray_00000174569392889665940230000013730660794122169764_" class="st1" points="99.2,99.2 61.2,241 151.1,85.2 "/>
<polygon id="gray_00000081643312374308563260000009414106851802060209_" class="st1" points="435.1,189.2 331.3,85.4 421.2,241.1 
	"/>
<polygon id="gray_00000006685546097613617250000013152949451949891258_" class="st1" points="383.2,383.2 421.2,241.3 331.2,397.1 
	"/>
<polygon id="gray" class="st1" points="47.2,293.1 151,396.9 61.1,241.2 "/>
</svg>
